<svg xmlns="http://www.w3.org/2000/svg" width="14.814" height="14.644" viewBox="0 0 14.814 14.644">
  <g id="close-icon" transform="translate(0 -1.844)">
    <g id="close_1_" transform="translate(0.001 1.844)">
      <path id="Path_13569" data-name="Path 13569" d="M1.4,17.078a1.4,1.4,0,0,1-1-.337,1.4,1.4,0,0,1,0-1.979L12.322,2.85A1.4,1.4,0,0,1,14.37,4.758L2.387,16.741a1.4,1.4,0,0,1-.982.337Z" transform="translate(-0.001 -2.442)" fill="#fff"/>
      <path id="Path_13570" data-name="Path 13570" d="M14.761,16.48a1.4,1.4,0,0,1-.982-.407L1.866,4.16A1.4,1.4,0,0,1,3.844,2.181L15.827,14.095a1.4,1.4,0,0,1,.065,1.983q-.032.034-.065.065a1.4,1.4,0,0,1-1.066.337Z" transform="translate(-1.458 -1.844)" fill="#fff"/>
    </g>
  </g>
</svg>
