<svg xmlns="http://www.w3.org/2000/svg" xmlns:xlink="http://www.w3.org/1999/xlink" width="159.234" height="44.05" viewBox="0 0 159.234 44.05">
  <defs>
    <clipPath id="clip-path">
      <rect id="Rectangle_3848" data-name="Rectangle 3848" width="42.141" height="44.05" fill="none"/>
    </clipPath>
  </defs>
  <g id="cws-logo" transform="translate(-880.383 -4926.263)">
    <text id="Website_by_CWS" data-name="Website by CWS" transform="translate(932.617 4953.033)" fill="#fff" font-size="12" font-family="Poppins-Regular, Poppins" letter-spacing="-0.02em"><tspan x="0" y="0">© Website by CWS</tspan></text>
    <g id="Group_5764" data-name="Group 5764" transform="translate(880.383 4926.263)">
      <g id="Group_5763" data-name="Group 5763" clip-path="url(#clip-path)">
        <rect id="Rectangle_3847" data-name="Rectangle 3847" width="16.029" height="7.304" rx="1" transform="translate(26.113 7.56)" fill="#fcb626"/>
        <path id="Path_13354" data-name="Path 13354" d="M9.766,10.836l5.271-5.315a1.286,1.286,0,0,0-.008-1.813L11.664.37A1.286,1.286,0,0,0,9.851.378L.987,9.316l-.609.6a1.3,1.3,0,0,0,0,1.831l.61.605,8.863,8.937a1.286,1.286,0,0,0,1.813.007l3.365-3.337a1.286,1.286,0,0,0,.008-1.813Z" transform="translate(-0.001 0)" fill="#fcb626"/>
        <path id="Path_13355" data-name="Path 13355" d="M26.013,335.494c1,0,1.992,0,2.988,0,.623,0,.773.121.991.709a12.031,12.031,0,0,0,7.38,7.353,11.557,11.557,0,0,0,5.022.684,12.261,12.261,0,0,0,10.544-7.971.961.961,0,0,1,1.114-.774h5.663c.07,0,.139,0,.208,0a.741.741,0,0,1,.782.963c-.149.678-.311,1.355-.51,2.02a19.879,19.879,0,0,1-2.17,4.8,18.3,18.3,0,0,1-4.357,4.819,19.5,19.5,0,0,1-9.76,4.055,19.839,19.839,0,0,1-10.778-1.656A19.2,19.2,0,0,1,27.75,346.9a18.909,18.909,0,0,1-5.134-8.492c-.183-.621-.314-1.258-.443-1.893-.134-.656.178-1.022.853-1.024,1,0,1.992,0,2.988,0" transform="translate(-20.344 -308.253)" fill="#fcb626"/>
      </g>
    </g>
  </g>
</svg>
