<svg id="division-hover-icon" xmlns="http://www.w3.org/2000/svg" xmlns:xlink="http://www.w3.org/1999/xlink" width="104.52" height="90.15" viewBox="0 0 104.52 90.15">
  <defs>
    <clipPath id="clip-path">
      <rect id="Rectangle_126" data-name="Rectangle 126" width="104.52" height="90.15" fill="#fff"/>
    </clipPath>
  </defs>
  <g id="Group_30" data-name="Group 30" clip-path="url(#clip-path)">
    <path id="Path_40" data-name="Path 40" d="M220.393,222.258H204.062A3.062,3.062,0,0,1,201,219.2V202.865a3.062,3.062,0,0,1,3.062-3.062h16.331a3.062,3.062,0,0,1,3.062,3.062V219.2a3.062,3.062,0,0,1-3.062,3.062m-13.269-6.124h10.207V205.927H207.124Z" transform="translate(-159.968 -159.015)" fill="#ec7223"/>
    <path id="Path_41" data-name="Path 41" d="M80.393,222.258H64.062A3.062,3.062,0,0,1,61,219.2V202.865a3.062,3.062,0,0,1,3.062-3.062H80.393a3.062,3.062,0,0,1,3.062,3.062V219.2a3.062,3.062,0,0,1-3.062,3.062m-13.269-6.124H77.331V205.927H67.124Z" transform="translate(-48.547 -159.015)" fill="#fff"/>
    <path id="Path_42" data-name="Path 42" d="M360.393,222.258H344.062A3.062,3.062,0,0,1,341,219.2V202.865a3.062,3.062,0,0,1,3.062-3.062h16.331a3.062,3.062,0,0,1,3.062,3.062V219.2a3.062,3.062,0,0,1-3.062,3.062m-13.269-6.124h10.207V205.927H347.124Z" transform="translate(-271.388 -159.015)" fill="#fff"/>
    <path id="Path_43" data-name="Path 43" d="M220.393,82.258H204.062A3.062,3.062,0,0,1,201,79.2V62.865a3.062,3.062,0,0,1,3.062-3.062h16.331a3.062,3.062,0,0,1,3.062,3.062V79.2a3.062,3.062,0,0,1-3.062,3.062m-13.269-6.124h10.207V65.927H207.124Z" transform="translate(-159.968 -47.595)" fill="#fff"/>
    <path id="Path_44" data-name="Path 44" d="M80.393,82.258H64.062A3.062,3.062,0,0,1,61,79.2V62.865A3.062,3.062,0,0,1,64.062,59.8H80.393a3.062,3.062,0,0,1,3.062,3.062V79.2a3.062,3.062,0,0,1-3.062,3.062M67.124,76.134H77.331V65.927H67.124Z" transform="translate(-48.547 -47.595)" fill="#ec7223"/>
    <path id="Path_45" data-name="Path 45" d="M360.393,82.258H344.062A3.062,3.062,0,0,1,341,79.2V62.865a3.062,3.062,0,0,1,3.062-3.062h16.331a3.062,3.062,0,0,1,3.062,3.062V79.2a3.062,3.062,0,0,1-3.062,3.062m-13.269-6.124h10.207V65.927H347.124Z" transform="translate(-271.388 -47.595)" fill="#ec7223"/>
    <path id="Path_46" data-name="Path 46" d="M101.458,75.656H3.062A3.062,3.062,0,0,1,0,72.594V3.062A3.062,3.062,0,0,1,3.062,0h98.4a3.062,3.062,0,0,1,3.062,3.062V72.594a3.062,3.062,0,0,1-3.062,3.062M6.124,69.531H98.4V6.124H6.124Z" transform="translate(0 0)" fill="#fff"/>
    <path id="Path_47" data-name="Path 47" d="M64.328,361.224a3.062,3.062,0,0,1-2.094-5.3,56.751,56.751,0,0,1,77.569,0,3.062,3.062,0,1,1-4.186,4.47,50.626,50.626,0,0,0-69.2,0,3.052,3.052,0,0,1-2.093.827" transform="translate(-48.758 -271.074)" fill="#fff"/>
  </g>
</svg>
