<svg id="division-icon" xmlns="http://www.w3.org/2000/svg" xmlns:xlink="http://www.w3.org/1999/xlink" width="68.244" height="58.861" viewBox="0 0 68.244 58.861">
  <defs>
    <clipPath id="clip-path">
      <rect id="Rectangle_126" data-name="Rectangle 126" width="68.244" height="58.861" fill="#fff"/>
    </clipPath>
  </defs>
  <g id="Group_30" data-name="Group 30" clip-path="url(#clip-path)">
    <path id="Path_40" data-name="Path 40" d="M213.662,214.465H203a2,2,0,0,1-2-2V201.8a2,2,0,0,1,2-2h10.663a2,2,0,0,1,2,2v10.663a2,2,0,0,1-2,2m-8.664-4h6.664V203.8H205Z" transform="translate(-174.209 -173.172)" fill="#ec7223"/>
    <path id="Path_41" data-name="Path 41" d="M73.662,214.465H63a2,2,0,0,1-2-2V201.8a2,2,0,0,1,2-2H73.662a2,2,0,0,1,2,2v10.663a2,2,0,0,1-2,2m-8.664-4h6.664V203.8H65Z" transform="translate(-52.869 -173.172)" fill="#fff"/>
    <path id="Path_42" data-name="Path 42" d="M353.662,214.465H343a2,2,0,0,1-2-2V201.8a2,2,0,0,1,2-2h10.663a2,2,0,0,1,2,2v10.663a2,2,0,0,1-2,2m-8.664-4h6.664V203.8H345Z" transform="translate(-295.549 -173.172)" fill="#fff"/>
    <path id="Path_43" data-name="Path 43" d="M213.662,74.465H203a2,2,0,0,1-2-2V61.8a2,2,0,0,1,2-2h10.663a2,2,0,0,1,2,2V72.465a2,2,0,0,1-2,2m-8.664-4h6.664V63.8H205Z" transform="translate(-174.209 -51.832)" fill="#fff"/>
    <path id="Path_44" data-name="Path 44" d="M73.662,74.465H63a2,2,0,0,1-2-2V61.8a2,2,0,0,1,2-2H73.662a2,2,0,0,1,2,2V72.465a2,2,0,0,1-2,2m-8.664-4h6.664V63.8H65Z" transform="translate(-52.869 -51.832)" fill="#ec7223"/>
    <path id="Path_45" data-name="Path 45" d="M353.662,74.465H343a2,2,0,0,1-2-2V61.8a2,2,0,0,1,2-2h10.663a2,2,0,0,1,2,2V72.465a2,2,0,0,1-2,2m-8.664-4h6.664V63.8H345Z" transform="translate(-295.549 -51.832)" fill="#ec7223"/>
    <path id="Path_46" data-name="Path 46" d="M66.244,49.4H2a2,2,0,0,1-2-2V2A2,2,0,0,1,2,0H66.244a2,2,0,0,1,2,2V47.4a2,2,0,0,1-2,2M4,45.4H64.245V4H4Z" transform="translate(0 0)" fill="#fff"/>
    <path id="Path_47" data-name="Path 47" d="M63.265,354.068A2,2,0,0,1,61.9,350.61a37.054,37.054,0,0,1,50.646,0,2,2,0,1,1-2.733,2.919,33.055,33.055,0,0,0-45.18,0,1.992,1.992,0,0,1-1.366.54" transform="translate(-53.099 -295.207)" fill="#fff"/>
  </g>
</svg>
