<svg xmlns="http://www.w3.org/2000/svg" width="29.681" height="29.633" viewBox="0 0 29.681 29.633">
  <g id="explore-icon" transform="translate(0.302 0.25)">
    <g id="g403" transform="translate(0.003 18.97)">
      <g id="path405">
        <path id="Path_13364" data-name="Path 13364" d="M-18.793,435.413a1.114,1.114,0,0,1-.464-.1,1.141,1.141,0,0,1-.571-1.5,14.648,14.648,0,0,1,3.259-4.286,15.611,15.611,0,0,1,4.469-2.905A16.983,16.983,0,0,1-5.391,425.3a16.983,16.983,0,0,1,6.709,1.316,15.611,15.611,0,0,1,4.469,2.905,14.708,14.708,0,0,1,3.259,4.286,1.137,1.137,0,1,1-2.075.933,12.775,12.775,0,0,0-2.8-3.617A13.728,13.728,0,0,0-5.4,427.571a13.735,13.735,0,0,0-9.568,3.553,12.846,12.846,0,0,0-2.79,3.621A1.137,1.137,0,0,1-18.793,435.413Z" transform="translate(19.928 -425.3)" fill="#ec7223" stroke="#ec7223" stroke-width="0.5"/>
      </g>
    </g>
    <g id="g407" transform="translate(13.462)">
      <g id="path409" transform="translate(0)">
        <path id="Path_13365" data-name="Path 13365" d="M-19.863-307.985A1.137,1.137,0,0,1-21-309.123v-16.469A3.413,3.413,0,0,1-17.592-329h9.087a1.141,1.141,0,0,1,1,.588,1.133,1.133,0,0,1-.034,1.154l-2.616,4.132,2.6,3.885a1.138,1.138,0,0,1,.06,1.167,1.133,1.133,0,0,1-1,.6h-6.816a1.137,1.137,0,0,1-1.137-1.137,1.135,1.135,0,0,1,1.137-1.137h4.69l-1.828-2.731a1.138,1.138,0,0,1-.017-1.24l1.908-3.016h-7.029a1.14,1.14,0,0,0-1.137,1.137v16.473A1.134,1.134,0,0,1-19.863-307.985Z" transform="translate(21 329)" fill="#ec7223" stroke="#ec7223" stroke-width="0.5"/>
      </g>
    </g>
    <g id="g411" transform="translate(2.837 4.541)">
      <g id="path413" transform="translate(0)">
        <path id="Path_13366" data-name="Path 13366" d="M3.816-303.125H-2.263A1.137,1.137,0,0,1-3.4-304.263,1.134,1.134,0,0,1-2.263-305.4H3.816a1.137,1.137,0,0,1,1.137,1.137A1.137,1.137,0,0,1,3.816-303.125Z" transform="translate(3.4 305.4)" fill="#ec7223" stroke="#ec7223" stroke-width="0.5"/>
      </g>
    </g>
    <g id="g415" transform="translate(0 9.087)">
      <g id="path417">
        <path id="Path_13367" data-name="Path 13367" d="M-9.946-116.425h-8.916A1.137,1.137,0,0,1-20-117.563a1.137,1.137,0,0,1,1.137-1.137h8.916a1.137,1.137,0,0,1,1.137,1.137A1.137,1.137,0,0,1-9.946-116.425Z" transform="translate(20 118.7)" fill="#ec7223" stroke="#ec7223" stroke-width="0.5"/>
      </g>
    </g>
    <g id="g419" transform="translate(5.112)">
      <g id="path421" transform="translate(0)">
        <path id="Path_13368" data-name="Path 13368" d="M14.942-489.729h-3.8A1.137,1.137,0,0,1,10-490.867,1.131,1.131,0,0,1,11.137-492h3.8a1.137,1.137,0,0,1,1.137,1.137A1.134,1.134,0,0,1,14.942-489.729Z" transform="translate(-10 492)" fill="#ec7223" stroke="#ec7223" stroke-width="0.5"/>
      </g>
    </g>
  </g>
</svg>
