<svg xmlns="http://www.w3.org/2000/svg" width="38.477" height="30" viewBox="0 0 38.477 30">
  <g id="game-grid-icon1" transform="translate(0 -56.4)">
    <g id="Group_5810" data-name="Group 5810" transform="translate(0.248 69.897)">
      <g id="Group_5809" data-name="Group 5809">
        <path id="Path_13410" data-name="Path 13410" d="M11.018,239.006H4.8A1.5,1.5,0,0,1,4.8,236h6.215a1.5,1.5,0,0,1,0,3.006Z" transform="translate(-3.3 -236)" fill="#fff"/>
      </g>
    </g>
    <g id="Group_5816" data-name="Group 5816" transform="translate(0 56.4)">
      <g id="Group_5814" data-name="Group 5814" transform="translate(6.831 0)">
        <g id="Group_5811" data-name="Group 5811" transform="translate(0 6.831)">
          <path id="Path_13411" data-name="Path 13411" d="M111.356,163.638h-16.1a4.362,4.362,0,0,1-4.359-4.359v-7.62a4.362,4.362,0,0,1,4.359-4.359h16.09a4.362,4.362,0,0,1,4.359,4.359v7.62A4.36,4.36,0,0,1,111.356,163.638Zm-16.1-13.332a1.357,1.357,0,0,0-1.353,1.353v7.62a1.357,1.357,0,0,0,1.353,1.353h16.09a1.357,1.357,0,0,0,1.353-1.353v-7.62a1.357,1.357,0,0,0-1.353-1.353Z" transform="translate(-90.9 -147.3)" fill="#fff"/>
        </g>
        <g id="Group_5812" data-name="Group 5812" transform="translate(6.328)">
          <path id="Path_13412" data-name="Path 13412" d="M185.756,66.237H176.6a1.507,1.507,0,0,1-1.5-1.5V57.9a1.507,1.507,0,0,1,1.5-1.5h9.146a1.507,1.507,0,0,1,1.5,1.5v6.831A1.491,1.491,0,0,1,185.756,66.237Zm-7.65-3.006h6.14V59.406h-6.14Z" transform="translate(-175.1 -56.4)" fill="#fff"/>
        </g>
        <g id="Group_5813" data-name="Group 5813" transform="translate(6.328 20.163)">
          <path id="Path_13413" data-name="Path 13413" d="M185.756,334.537H176.6a1.507,1.507,0,0,1-1.5-1.5V326.2a1.507,1.507,0,0,1,1.5-1.5h9.146a1.507,1.507,0,0,1,1.5,1.5v6.831A1.491,1.491,0,0,1,185.756,334.537Zm-7.65-3.006h6.14v-3.825h-6.14Z" transform="translate(-175.1 -324.7)" fill="#fff"/>
        </g>
      </g>
      <g id="Group_5815" data-name="Group 5815">
        <path id="Path_13414" data-name="Path 13414" d="M32.465,86.4H6.012A6.02,6.02,0,0,1,0,80.388V62.412A6.02,6.02,0,0,1,6.012,56.4H32.465a6.02,6.02,0,0,1,6.012,6.012V71.4a1.507,1.507,0,0,1-1.5,1.5H30.511a1.5,1.5,0,0,1,0-3.006h4.96V62.412a3.01,3.01,0,0,0-3.006-3.006H6.012a3.01,3.01,0,0,0-3.006,3.006V80.4A3.01,3.01,0,0,0,6.012,83.4H32.465A3.01,3.01,0,0,0,35.471,80.4v-1.48a1.5,1.5,0,1,1,3.006,0V80.4A6.018,6.018,0,0,1,32.465,86.4Z" transform="translate(0 -56.4)" fill="#fff"/>
      </g>
    </g>
  </g>
</svg>
