<svg xmlns="http://www.w3.org/2000/svg" width="36.437" height="36.436" viewBox="0 0 36.437 36.436">
  <path id="game-grid-icon3" d="M36.432,5.126a1.423,1.423,0,0,0-.9-1.323C34.642,3.453,26.786.376,24.46.017L24.411.011l-.034,0C24.335,0,24.293,0,24.252,0H24.24c-.021,0-2.193,0-6.1,0S12.217,0,12.2,0h-.011c-.042,0-.084,0-.126.006l-.034,0-.049.006C9.652.376,1.8,3.453.907,3.8a1.423,1.423,0,0,0-.9,1.323L0,14.091a1.423,1.423,0,0,0,1.745,1.387l4.38-1.018V29.215c0,.036-.005.072-.005.109s0,.073.005.109v1.311a5.7,5.7,0,0,0,5.693,5.693h12.8a5.7,5.7,0,0,0,5.693-5.693,1.423,1.423,0,1,0-2.846,0,2.849,2.849,0,0,1-2.846,2.846h-12.8a2.849,2.849,0,0,1-2.846-2.843H23.2a1.423,1.423,0,1,0,0-2.846H8.971V9.111a1.423,1.423,0,0,0-2.846,0v2.427L2.847,12.3l0-6.2c2.9-1.122,6.816-2.561,8.761-3.087l5.416,7.165a1.412,1.412,0,0,0,1.127.64h.128a1.412,1.412,0,0,0,1.127-.64l5.416-7.165c1.945.527,5.864,1.965,8.761,3.087l0,6.2-3.278-.761V9.111a1.423,1.423,0,0,0-2.846,0V23.627a1.423,1.423,0,1,0,2.846,0V14.461l4.38,1.018a1.423,1.423,0,0,0,1.745-1.387ZM21.381,2.849,18.219,7.032,15.056,2.849h6.325ZM16.793,23.627V17.993l-1.191.924a1.423,1.423,0,0,1-1.744-2.249l3.487-2.7a1.423,1.423,0,0,1,2.3,1.125v8.539a1.423,1.423,0,0,1-2.846,0Zm0,0" transform="translate(0)" fill="#fff"/>
</svg>
