<svg xmlns="http://www.w3.org/2000/svg" width="37.305" height="37.308" viewBox="0 0 37.305 37.308">
  <g id="game-grid-icon6" transform="translate(-0.021)">
    <g id="Group_5808" data-name="Group 5808" transform="translate(0.021)">
      <g id="Group_5807" data-name="Group 5807" transform="translate(0)">
        <path id="Path_13408" data-name="Path 13408" d="M36.935,3.379a1.458,1.458,0,0,0-1.067-.464H29.955q.014-.713.014-1.457A1.457,1.457,0,0,0,28.512,0H8.838A1.457,1.457,0,0,0,7.38,1.457q0,.745.014,1.457H1.478A1.457,1.457,0,0,0,.025,4.476a18.074,18.074,0,0,0,2.093,6.466,23.974,23.974,0,0,0,4.226,5.743,29.661,29.661,0,0,0,7.571,5.458,16.321,16.321,0,0,1,3.3,5.095v2.369a20.42,20.42,0,0,0-2.815,1c-3.756,1.673-4.544,3.777-4.544,5.248a1.457,1.457,0,0,0,1.457,1.457H25.889a1.457,1.457,0,0,0,1.457-1.457c0-1.433-.773-3.5-4.453-5.2a20.57,20.57,0,0,0-2.761-1.024v-2.5a15.67,15.67,0,0,1,3.26-4.962,28.327,28.327,0,0,0,9.5-7.617,1.457,1.457,0,1,0-2.292-1.8,22.7,22.7,0,0,1-2.987,3.122,29.6,29.6,0,0,0,2.215-10.04h4.287c-.082.318-.186.677-.317,1.068a1.457,1.457,0,1,0,2.764.924,14.709,14.709,0,0,0,.76-3.346A1.458,1.458,0,0,0,36.935,3.379ZM4.772,9.727a17.912,17.912,0,0,1-1.538-3.9H7.522a29.563,29.563,0,0,0,2.224,10.06A21.461,21.461,0,0,1,4.772,9.727ZM23.5,34.393H13.679a8.752,8.752,0,0,1,1.87-1.11,18.211,18.211,0,0,1,3.119-1.039A14.009,14.009,0,0,1,23.5,34.393Zm.075-17.175a28.279,28.279,0,0,1-2.333,2.973,27.784,27.784,0,0,0-2.6,3.362,29.438,29.438,0,0,0-2.579-3.375,29.975,29.975,0,0,1-2.3-2.96C11.5,13.735,10.443,9.4,10.31,2.915H27.04C26.906,9.4,25.849,13.735,23.578,17.218Z" transform="translate(-0.021 0)" fill="#fff"/>
        <path id="Path_13409" data-name="Path 13409" d="M208.205,85.25v4.057a1.457,1.457,0,0,0,2.915,0V82.458a1.457,1.457,0,0,0-2.293-1.194l-2.186,1.53a1.457,1.457,0,0,0,1.564,2.456Z" transform="translate(-191.009 -75.098)" fill="#fff"/>
      </g>
    </g>
  </g>
</svg>
