<svg id="game-grid-icon2" xmlns="http://www.w3.org/2000/svg" width="36.437" height="36.437" viewBox="0 0 36.437 36.437">
  <g id="g14236" transform="translate(13.946)">
    <g id="path14238" transform="translate(0)">
      <path id="Path_13415" data-name="Path 13415" d="M49.57-443.461a4.275,4.275,0,0,1-4.27-4.27A4.275,4.275,0,0,1,49.57-452a4.275,4.275,0,0,1,4.27,4.27A4.275,4.275,0,0,1,49.57-443.461Zm0-5.695a1.428,1.428,0,0,0-1.425,1.425,1.428,1.428,0,0,0,1.425,1.425,1.428,1.428,0,0,0,1.425-1.425A1.428,1.428,0,0,0,49.57-449.155Z" transform="translate(-45.3 452)" fill="#fff"/>
    </g>
  </g>
  <g id="g14240" transform="translate(10.317 9.89)">
    <g id="path14242" transform="translate(0)">
      <path id="Path_13416" data-name="Path 13416" d="M-11.951,191.847a1.425,1.425,0,0,1-1.425-1.425v-6.212a5,5,0,0,1,2.418-4.27l.1-.064a2.141,2.141,0,0,0,1.035-1.831V171.7c0-2.941-2.727-3.56-5.017-3.56s-5.017.619-5.017,3.56v6.319a2.155,2.155,0,0,0,1.051,1.841l.123.069a5,5,0,0,1,2.455,4.3v6.191a1.425,1.425,0,0,1-1.425,1.425,1.42,1.42,0,0,1-1.42-1.425v-6.191a2.155,2.155,0,0,0-1.051-1.841l-.123-.069a5,5,0,0,1-2.455-4.3V171.7a5.767,5.767,0,0,1,2.5-5,9.471,9.471,0,0,1,5.358-1.409,9.429,9.429,0,0,1,5.358,1.409,5.78,5.78,0,0,1,2.5,5v6.341a5,5,0,0,1-2.418,4.27l-.1.064a2.141,2.141,0,0,0-1.035,1.831v6.212A1.424,1.424,0,0,1-11.951,191.847Z" transform="translate(22.7 -165.3)" fill="#fff"/>
    </g>
  </g>
  <g id="g14244" transform="translate(2.845 2.845)">
    <g id="path14246" transform="translate(0)">
      <path id="Path_13417" data-name="Path 13417" d="M-2.43-350.161a4.275,4.275,0,0,1-4.27-4.27,4.275,4.275,0,0,1,4.27-4.27,4.275,4.275,0,0,1,4.27,4.27A4.275,4.275,0,0,1-2.43-350.161Zm0-5.689a1.428,1.428,0,0,0-1.425,1.425A1.428,1.428,0,0,0-2.43-353a1.428,1.428,0,0,0,1.425-1.425A1.428,1.428,0,0,0-2.43-355.85Z" transform="translate(6.7 358.7)" fill="#fff"/>
    </g>
  </g>
  <g id="g14248" transform="translate(8.539 28.607)">
    <g id="path14250" transform="translate(0)">
      <path id="Path_13418" data-name="Path 13418" d="M21.425,523.83A1.425,1.425,0,0,1,20,522.4v-4.98a1.425,1.425,0,1,1,2.85,0v4.98A1.432,1.432,0,0,1,21.425,523.83Z" transform="translate(-20 -516)" fill="#fff"/>
    </g>
  </g>
  <g id="g14252" transform="translate(0 12.772)">
    <g id="path14254">
      <path id="Path_13419" data-name="Path 13419" d="M-55.73,242.965a1.425,1.425,0,0,1-1.425-1.425v-4.98a2.149,2.149,0,0,0-.854-1.708A5.026,5.026,0,0,1-60,230.866v-6.047a4.951,4.951,0,0,1,2.284-4.4,8.68,8.68,0,0,1,4.691-1.121,1.425,1.425,0,0,1,1.425,1.425,1.421,1.421,0,0,1-1.425,1.425c-4.126,0-4.126,1.937-4.126,2.669v6.047a2.149,2.149,0,0,0,.854,1.708,5,5,0,0,1,1.991,3.987v4.98A1.428,1.428,0,0,1-55.73,242.965Z" transform="translate(60 -219.3)" fill="#fff"/>
    </g>
  </g>
  <g id="g14256" transform="translate(25.047 2.845)">
    <g id="path14258" transform="translate(0)">
      <path id="Path_13420" data-name="Path 13420" d="M21.57-350.161a4.275,4.275,0,0,1-4.27-4.27,4.275,4.275,0,0,1,4.27-4.27,4.275,4.275,0,0,1,4.27,4.27A4.275,4.275,0,0,1,21.57-350.161Zm0-5.689a1.428,1.428,0,0,0-1.425,1.425A1.428,1.428,0,0,0,21.57-353a1.428,1.428,0,0,0,1.425-1.425A1.428,1.428,0,0,0,21.57-355.85Z" transform="translate(-17.3 358.7)" fill="#fff"/>
    </g>
  </g>
  <g id="g14260" transform="translate(25.047 28.607)">
    <g id="path14262" transform="translate(0)">
      <path id="Path_13421" data-name="Path 13421" d="M98.725,523.83A1.425,1.425,0,0,1,97.3,522.4v-4.98a1.425,1.425,0,1,1,2.85,0v4.98A1.428,1.428,0,0,1,98.725,523.83Z" transform="translate(-97.3 -516)" fill="#fff"/>
    </g>
  </g>
  <g id="g14264" transform="translate(28.036 12.772)">
    <g id="path14266" transform="translate(0)">
      <path id="Path_13422" data-name="Path 13422" d="M77.431,242.965a1.425,1.425,0,0,1-1.425-1.425v-4.98A5.026,5.026,0,0,1,78,232.573a2.149,2.149,0,0,0,.854-1.708v-6.047c0-.731,0-2.669-4.126-2.669a1.425,1.425,0,0,1,0-2.85,8.692,8.692,0,0,1,4.691,1.121,4.939,4.939,0,0,1,2.284,4.4v6.047a5.026,5.026,0,0,1-1.991,3.987,2.149,2.149,0,0,0-.854,1.708v4.98A1.432,1.432,0,0,1,77.431,242.965Z" transform="translate(-73.3 -219.3)" fill="#fff"/>
    </g>
  </g>
</svg>
