<svg xmlns="http://www.w3.org/2000/svg" width="35.194" height="35.199" viewBox="0 0 35.194 35.199">
  <path id="game-grid-icon4" d="M9.691,8.252A4.124,4.124,0,1,0,5.567,4.128,4.129,4.129,0,0,0,9.691,8.252Zm0-5.5A1.375,1.375,0,1,1,8.317,4.128,1.376,1.376,0,0,1,9.691,2.753Zm25.5,23.165a1.375,1.375,0,0,1-1.375,1.375H30.382v2.681a1.375,1.375,0,0,1-1.375,1.375H24.676v2.475A1.375,1.375,0,0,1,23.3,35.2H1.443a1.37,1.37,0,0,1-1.007-.441,1.374,1.374,0,0,1-.121-1.879l4.634-5.6V13.618l-2.2,3.3v5.014a1.375,1.375,0,1,1-2.75,0V16.5a1.374,1.374,0,0,1,.231-.763l2.9-4.343a4.116,4.116,0,0,1,2.89-1.8,1.387,1.387,0,0,1,.308-.036c.024,0,.047,0,.071,0,.054,0,.109,0,.163,0h4.715A4.82,4.82,0,0,1,14.55,11.6l2.3,3.185h3.56a1.375,1.375,0,0,1,0,2.75H16.153a1.375,1.375,0,0,1-1.114-.569L12.323,13.21a2.783,2.783,0,0,0-1.14-.9H7.7V27.774a1.374,1.374,0,0,1-.316.877l-3.143,3.8H14.847V27.364L10.638,23.65a1.375,1.375,0,0,1-.465-1.031V17.945a1.375,1.375,0,1,1,2.75,0V22l4.209,3.714a1.375,1.375,0,0,1,.465,1.031v5.705h4.331V29.974A1.375,1.375,0,0,1,23.3,28.6h4.331V25.918a1.375,1.375,0,0,1,1.375-1.375h4.812a1.374,1.374,0,0,1,1.375,1.375ZM31.069,0H23.645A1.375,1.375,0,0,0,22.6,2.268l2.238,2.617L22.626,7.33a1.375,1.375,0,0,0,1.02,2.3h8.8v10.1a1.375,1.375,0,0,0,2.75,0V4.124A4.129,4.129,0,0,0,31.069,0Zm1.375,6.879h-5.7l.946-1.045a1.375,1.375,0,0,0,.025-1.816L26.63,2.749h4.439a1.376,1.376,0,0,1,1.375,1.375Zm0,0" transform="translate(0.001 0.001)" fill="#fff"/>
</svg>
