<svg xmlns="http://www.w3.org/2000/svg" width="35.195" height="30.383" viewBox="0 0 35.195 30.383">
  <path id="game-grid-icon5" d="M32.445,53.01v-13.2H30.383v.619a1.375,1.375,0,1,1-2.75,0v-.619H23.715v.619a1.375,1.375,0,1,1-2.75,0v-.619H14.229v.619a1.375,1.375,0,1,1-2.75,0v-.619H7.561v.619a1.375,1.375,0,1,1-2.75,0v-.619H2.75V59.884a2.753,2.753,0,0,0,2.75,2.75H16.223v-18.7a1.375,1.375,0,0,1,2.75,0v18.7H29.7a2.753,2.753,0,0,0,2.75-2.75,1.375,1.375,0,1,1,2.75,0,5.505,5.505,0,0,1-5.5,5.5H5.5a5.505,5.505,0,0,1-5.5-5.5V38.437a1.375,1.375,0,0,1,1.375-1.375H4.812v-.687a1.375,1.375,0,1,1,2.75,0v.687H11.48v-.687a1.375,1.375,0,1,1,2.75,0v.687h6.736v-.687a1.375,1.375,0,1,1,2.75,0v.687h3.918v-.687a1.375,1.375,0,1,1,2.75,0v.687H33.82a1.375,1.375,0,0,1,1.375,1.375V53.01a1.375,1.375,0,0,1-2.75,0Zm-2.681-3.643v5.774a4.124,4.124,0,0,1-8.249,0V49.367a4.124,4.124,0,1,1,8.249,0Zm-2.75,0a1.375,1.375,0,1,0-2.75,0v5.774a1.375,1.375,0,0,0,2.75,0ZM10.1,58.921a1.375,1.375,0,0,0,1.375-1.375V46.961a1.375,1.375,0,0,0-2.217-1.087L6.513,48A1.375,1.375,0,1,0,8.2,50.178l.533-.413v7.781A1.375,1.375,0,0,0,10.1,58.921Z" transform="translate(0 -35)" fill="#fff"/>
</svg>
