<svg xmlns="http://www.w3.org/2000/svg" xmlns:xlink="http://www.w3.org/1999/xlink" width="52" height="52" viewBox="0 0 52 52">
  <defs>
    <clipPath id="clip-path">
      <rect id="Rectangle_124" data-name="Rectangle 124" width="52" height="52" transform="translate(0.265 0.265)" fill="none"/>
    </clipPath>
  </defs>
  <g id="hover-img-icon" transform="translate(-0.253 -0.254)">
    <g id="Group_26" data-name="Group 26" transform="translate(-0.012 -0.011)" clip-path="url(#clip-path)">
      <path id="Path_31" data-name="Path 31" d="M17.953,58.172h0A17.975,17.975,0,0,1,0,40.216V33.664a1.532,1.532,0,0,1,1.532-1.532h9.844a1.532,1.532,0,0,1,0,3.064H3.064v5.019A14.907,14.907,0,0,0,17.952,55.108a1.532,1.532,0,1,1,0,3.064" transform="translate(0 -28.85)" fill="#fff"/>
      <path id="Path_32" data-name="Path 32" d="M322.783,58.173a1.532,1.532,0,1,1,0-3.064h0A14.906,14.906,0,0,0,337.67,40.217V35.2h-8.312a1.532,1.532,0,0,1,0-3.064H339.2a1.532,1.532,0,0,1,1.532,1.532v6.551a17.974,17.974,0,0,1-17.951,17.957" transform="translate(-288.436 -28.851)" fill="#fff"/>
      <path id="Path_27" data-name="Path 27" d="M169.322,82.527a3.362,3.362,0,0,1-3.243-4.209l.583-2.23-1.783-1.462a3.355,3.355,0,0,1,1.931-5.944l2.3-.134.839-2.148h0a3.354,3.354,0,0,1,6.249,0l.838,2.148,2.3.134a3.355,3.355,0,0,1,1.932,5.944l-1.784,1.462.584,2.231a3.354,3.354,0,0,1-5.056,3.673l-1.94-1.244-1.941,1.244a3.35,3.35,0,0,1-1.812.535M172.8,67.515l-1.2,3.063a1.532,1.532,0,0,1-1.338.972l-3.282.191a.29.29,0,0,0-.166.514l2.543,2.085a1.532,1.532,0,0,1,.511,1.572l-.832,3.181a.293.293,0,0,0,.11.309.287.287,0,0,0,.326.009l2.768-1.775a1.532,1.532,0,0,1,1.654,0l2.767,1.775a.29.29,0,0,0,.437-.319l-.832-3.18a1.532,1.532,0,0,1,.511-1.573l2.543-2.084a.291.291,0,0,0-.167-.514l-3.282-.191a1.532,1.532,0,0,1-1.338-.973l-1.2-3.063a.29.29,0,0,0-.54,0Zm-2.623,2.506h0Z" transform="translate(-146.932 -57.702)" fill="#fff"/>
      <path id="Path_28" data-name="Path 28" d="M124.156,45.734H101.186A1.532,1.532,0,0,1,99.654,44.2c0-3.329,2.687-4.942,4.845-6.237,2.082-1.25,3.358-2.092,3.358-3.61,0-.007,0-.014,0-.021.026-1.962-1.4-3.136-3.927-5.04a22.962,22.962,0,0,1-4.992-4.662A13.589,13.589,0,0,1,96.373,16.3V1.532A1.532,1.532,0,0,1,97.905,0h29.532a1.532,1.532,0,0,1,1.532,1.532v14.79a13.581,13.581,0,0,1-2.566,8.31,22.958,22.958,0,0,1-4.992,4.662c-2.526,1.9-3.954,3.078-3.927,5.04,0,.007,0,.014,0,.021,0,1.517,1.276,2.36,3.358,3.61,2.159,1.3,4.845,2.908,4.845,6.237a1.532,1.532,0,0,1-1.532,1.532m-20.882-3.064h18.8a10.733,10.733,0,0,0-2.8-2.078c-2.156-1.294-4.839-2.9-4.845-6.226-.044-3.6,2.594-5.594,5.146-7.519,3.116-2.35,6.338-4.78,6.338-10.545V3.064H99.437V16.3c0,5.764,3.222,8.195,6.338,10.545,2.552,1.924,5.19,3.914,5.146,7.518-.006,3.322-2.689,4.932-4.845,6.227a10.732,10.732,0,0,0-2.8,2.078" transform="translate(-86.529 -0.001)" fill="#ec7223"/>
      <path id="Path_29" data-name="Path 29" d="M114.541,427.362H81.7a1.532,1.532,0,0,1-1.532-1.532v-6.565a1.532,1.532,0,0,1,1.532-1.532h32.842a1.532,1.532,0,0,1,1.532,1.532v6.565a1.532,1.532,0,0,1-1.532,1.532M83.23,424.3h29.778v-3.5H83.23Z" transform="translate(-71.978 -375.064)" fill="#ec7223"/>
      <path id="Path_30" data-name="Path 30" d="M89.094,485.064H49.718a1.532,1.532,0,1,1,0-3.064H89.094a1.532,1.532,0,1,1,0,3.064" transform="translate(-43.264 -432.767)" fill="#ec7223"/>
    </g>
  </g>
</svg>
