<svg xmlns="http://www.w3.org/2000/svg" width="35" height="35" viewBox="0 0 35 35">
  <g id="instagram-icon1" transform="translate(-0.178)">
    <circle id="Ellipse_410" data-name="Ellipse 410" cx="17.5" cy="17.5" r="17.5" transform="translate(0.178)" fill="#ec7223"/>
    <path id="Icon_awesome-instagram" data-name="Icon awesome-instagram" d="M9.052,6.649a4.642,4.642,0,1,0,4.642,4.642A4.635,4.635,0,0,0,9.052,6.649Zm0,7.66a3.018,3.018,0,1,1,3.018-3.018,3.024,3.024,0,0,1-3.018,3.018Zm5.915-7.85a1.083,1.083,0,1,1-1.083-1.083A1.08,1.08,0,0,1,14.967,6.459Zm3.075,1.1a5.358,5.358,0,0,0-1.463-3.794A5.394,5.394,0,0,0,12.785,2.3c-1.495-.085-5.975-.085-7.47,0A5.386,5.386,0,0,0,1.521,3.76,5.376,5.376,0,0,0,.058,7.554c-.085,1.495-.085,5.975,0,7.47a5.358,5.358,0,0,0,1.463,3.794A5.4,5.4,0,0,0,5.315,20.28c1.495.085,5.975.085,7.47,0a5.358,5.358,0,0,0,3.794-1.463,5.394,5.394,0,0,0,1.463-3.794c.085-1.495.085-5.971,0-7.466Zm-1.931,9.07a3.056,3.056,0,0,1-1.721,1.721c-1.192.473-4.02.364-5.337.364s-4.149.105-5.337-.364a3.056,3.056,0,0,1-1.721-1.721c-.473-1.192-.364-4.02-.364-5.337s-.105-4.149.364-5.337A3.055,3.055,0,0,1,3.715,4.233c1.192-.473,4.02-.364,5.337-.364s4.149-.105,5.337.364A3.055,3.055,0,0,1,16.11,5.954c.473,1.192.364,4.02.364,5.337S16.583,15.44,16.11,16.628Z" transform="translate(8.784 6.209)" fill="#fff"/>
  </g>
</svg>
