<svg id="instagram" xmlns="http://www.w3.org/2000/svg" width="20.814" height="20.818" viewBox="0 0 20.814 20.818">
  <path id="Path_13464" data-name="Path 13464" d="M21.21,6.121A7.607,7.607,0,0,0,20.726,3.6,5.333,5.333,0,0,0,17.68.549,7.627,7.627,0,0,0,15.154.065C14.04.012,13.686,0,10.86,0S7.68.012,6.569.061A7.609,7.609,0,0,0,4.044.545,5.08,5.08,0,0,0,2.2,1.749,5.126,5.126,0,0,0,1,3.591,7.627,7.627,0,0,0,.514,6.117C.461,7.231.449,7.585.449,10.411S.461,13.592.51,14.7a7.607,7.607,0,0,0,.484,2.526A5.332,5.332,0,0,0,4.04,20.273a7.628,7.628,0,0,0,2.526.484c1.11.049,1.464.061,4.291.061s3.18-.012,4.291-.061a7.605,7.605,0,0,0,2.525-.484,5.325,5.325,0,0,0,3.046-3.046A7.633,7.633,0,0,0,21.2,14.7c.049-1.11.061-1.464.061-4.291s0-3.18-.053-4.291Zm-1.875,8.5a5.706,5.706,0,0,1-.358,1.932A3.453,3.453,0,0,1,17,18.529a5.726,5.726,0,0,1-1.932.358c-1.1.049-1.427.061-4.205.061s-3.111-.012-4.205-.061a5.7,5.7,0,0,1-1.932-.358,3.2,3.2,0,0,1-1.2-.777,3.237,3.237,0,0,1-.777-1.2A5.727,5.727,0,0,1,2.4,14.625c-.049-1.1-.061-1.428-.061-4.205s.012-3.111.061-4.205a5.7,5.7,0,0,1,.358-1.932,3.164,3.164,0,0,1,.781-1.2,3.232,3.232,0,0,1,1.2-.777,5.73,5.73,0,0,1,1.932-.358c1.1-.049,1.428-.061,4.205-.061s3.111.012,4.205.061A5.706,5.706,0,0,1,17,2.31a3.2,3.2,0,0,1,1.2.777,3.236,3.236,0,0,1,.777,1.2,5.729,5.729,0,0,1,.358,1.932c.049,1.1.061,1.427.061,4.205s-.012,3.1-.061,4.2Zm0,0" transform="translate(-0.449 0)" fill="#ec7223"/>
  <path id="Path_13465" data-name="Path 13465" d="M130.3,124.5a5.348,5.348,0,1,0,5.348,5.348A5.349,5.349,0,0,0,130.3,124.5Zm0,8.817a3.469,3.469,0,1,1,3.469-3.469A3.47,3.47,0,0,1,130.3,133.317Zm0,0" transform="translate(-119.886 -119.437)" fill="#ec7223"/>
  <path id="Path_13466" data-name="Path 13466" d="M364.947,89.85A1.249,1.249,0,1,1,363.7,88.6,1.249,1.249,0,0,1,364.947,89.85Zm0,0" transform="translate(-347.728 -84.998)" fill="#ec7223"/>
</svg>
