<svg xmlns="http://www.w3.org/2000/svg" width="27.646" height="27.646" viewBox="0 0 27.646 27.646">
  <path id="investment-icon" d="M15.89,13.067v-.108h-.648a1.08,1.08,0,1,1,0-2.16h2.192a.33.33,0,0,0,.346-.329v-.433a.328.328,0,0,0-.346-.324h-.718a2.519,2.519,0,0,1-2.5-2.532V7.136A2.5,2.5,0,0,1,15.89,4.784v-.3a1.08,1.08,0,1,1,2.16,0v.162h.162a1.08,1.08,0,1,1,0,2.16h-1.5a.329.329,0,0,0-.341.332v.046a.367.367,0,0,0,.341.372h.718a2.5,2.5,0,0,1,2.506,2.484v.433a2.5,2.5,0,0,1-1.89,2.413v.184a1.08,1.08,0,0,1-2.16,0Zm11.177,9.179a1.08,1.08,0,0,0,1.08-1.08V20.039a4.656,4.656,0,0,0-4.65-4.65H21.632a1.077,1.077,0,0,0-1.577-.819A6.58,6.58,0,1,1,23,11.415a1.08,1.08,0,1,0,1.974.876A8.75,8.75,0,1,0,11.7,15.725a3.26,3.26,0,0,0-1.542,1.627l-4.164-3.8a3.217,3.217,0,0,0-2.253-.913H3.71a3.24,3.24,0,0,0-2.239,5.552l.023.022,5.5,5.092a15.46,15.46,0,0,0,10.747,4.345h9.326a1.08,1.08,0,0,0,0-2.16H17.741a13.237,13.237,0,0,1-9.253-3.746l-.018-.016-5.5-5.088A1.08,1.08,0,0,1,3.731,14.8h.01A1.072,1.072,0,0,1,4.5,15.1l.028.027,6.233,5.7a3.231,3.231,0,0,0,2.378,1.042h5.4a1.08,1.08,0,1,0,0-2.16h-5.4a1.074,1.074,0,0,1-.6-.184l-.019-.019-.219-.2a1.079,1.079,0,0,1,.841-1.756H23.5a2.493,2.493,0,0,1,2.491,2.49v1.128a1.08,1.08,0,0,0,1.08,1.08Zm0,0" transform="translate(-0.501 0)" fill="#ec7223"/>
</svg>
