<svg xmlns="http://www.w3.org/2000/svg" width="58.175" height="66" viewBox="0 0 58.175 66">
  <g id="lakewood-loves-grid-icon1" transform="translate(-30.3)">
    <g id="Group_5836" data-name="Group 5836" transform="translate(30.3)">
      <g id="Group_5828" data-name="Group 5828" transform="translate(11.034 16.616)">
        <path id="Path_13439" data-name="Path 13439" d="M149.441,178.284H118.478a2.586,2.586,0,0,1-2.578-2.578V131.478a2.586,2.586,0,0,1,2.578-2.578h30.963a2.586,2.586,0,0,1,2.578,2.578v44.228A2.577,2.577,0,0,1,149.441,178.284Zm-28.385-5.156h25.807V134.056H121.056Z" transform="translate(-115.9 -128.9)" fill="#fff"/>
      </g>
      <g id="Group_5829" data-name="Group 5829" transform="translate(0 28.818)">
        <path id="Path_13440" data-name="Path 13440" d="M43.912,260.741H32.878a2.586,2.586,0,0,1-2.578-2.578V237.254a10.441,10.441,0,0,1,4.937-8.83l7.309-4.486a2.573,2.573,0,0,1,3.919,2.2v32.02A2.547,2.547,0,0,1,43.912,260.741Zm-8.456-5.156h5.865V230.732l-3.39,2.075a5.242,5.242,0,0,0-2.488,4.434v18.343Z" transform="translate(-30.3 -223.559)" fill="#fff"/>
      </g>
      <g id="Group_5830" data-name="Group 5830" transform="translate(7.838 16.616)">
        <path id="Path_13441" data-name="Path 13441" d="M131.035,134.056H93.678a2.578,2.578,0,0,1,0-5.156h37.357a2.578,2.578,0,0,1,0,5.156Z" transform="translate(-91.1 -128.9)" fill="#fff"/>
      </g>
      <g id="Group_5831" data-name="Group 5831" transform="translate(26.516 3.274)">
        <path id="Path_13442" data-name="Path 13442" d="M238.578,42.944A2.586,2.586,0,0,1,236,40.366V27.978a2.578,2.578,0,1,1,5.156,0v12.4A2.575,2.575,0,0,1,238.578,42.944Z" transform="translate(-236 -25.4)" fill="#fff"/>
      </g>
      <g id="Group_5832" data-name="Group 5832" transform="translate(26.516)">
        <path id="Path_13443" data-name="Path 13443" d="M244.3,13.69h-5.723A2.586,2.586,0,0,1,236,11.112V2.578A2.586,2.586,0,0,1,238.578,0h9.99a2.586,2.586,0,0,1,2.578,2.578V6.845A6.858,6.858,0,0,1,244.3,13.69Zm-3.145-5.156H244.3a1.694,1.694,0,0,0,1.689-1.689V5.156h-4.834Z" transform="translate(-236)" fill="#fff"/>
      </g>
      <g id="Group_5833" data-name="Group 5833" transform="translate(21.334 45.478)">
        <path id="Path_13444" data-name="Path 13444" d="M208.987,373.322H198.378a2.586,2.586,0,0,1-2.578-2.578V360.676a7.883,7.883,0,0,1,15.765,0v10.068A2.577,2.577,0,0,1,208.987,373.322Zm-8.031-5.156h5.453v-7.489a2.726,2.726,0,0,0-5.453,0Z" transform="translate(-195.8 -352.8)" fill="#fff"/>
      </g>
      <g id="Group_5834" data-name="Group 5834" transform="translate(21.334 35.746)">
        <path id="Path_13445" data-name="Path 13445" d="M208.987,282.456H198.378a2.578,2.578,0,0,1,0-5.156h10.609a2.578,2.578,0,0,1,0,5.156Z" transform="translate(-195.8 -277.3)" fill="#fff"/>
      </g>
      <g id="Group_5835" data-name="Group 5835" transform="translate(21.334 26.774)">
        <path id="Path_13446" data-name="Path 13446" d="M208.987,212.856H198.378a2.578,2.578,0,0,1,0-5.156h10.609a2.578,2.578,0,0,1,0,5.156Z" transform="translate(-195.8 -207.7)" fill="#fff"/>
      </g>
    </g>
    <g id="Group_5837" data-name="Group 5837" transform="translate(72.311 28.805)">
      <path id="Path_13447" data-name="Path 13447" d="M369.8,260.654H358.778a2.586,2.586,0,0,1-2.578-2.578V226.043a2.605,2.605,0,0,1,1.315-2.256,2.578,2.578,0,0,1,2.6.052l7.309,4.486a10.441,10.441,0,0,1,4.937,8.83v8.031a2.578,2.578,0,0,1-5.156,0v-8.018a5.242,5.242,0,0,0-2.488-4.434l-3.39-2.075V255.5h8.443a2.578,2.578,0,0,1,.026,5.156Z" transform="translate(-356.2 -223.459)" fill="#fff"/>
    </g>
  </g>
</svg>
