<svg id="lakewood-loves-grid-icon2" xmlns="http://www.w3.org/2000/svg" width="52.825" height="52.825" viewBox="0 0 52.825 52.825">
  <g id="g2821" transform="translate(0 48.693)">
    <g id="path2823" transform="translate(0 0)">
      <path id="Path_13432" data-name="Path 13432" d="M30.759,613.432H-17.934A2.066,2.066,0,0,1-20,611.366a2.066,2.066,0,0,1,2.066-2.066H30.759a2.066,2.066,0,0,1,0,4.132Z" transform="translate(20 -609.3)" fill="#fff"/>
    </g>
  </g>
  <g id="g2825" transform="translate(18.98 16.504)">
    <g id="path2827" transform="translate(0)">
      <path id="Path_13433" data-name="Path 13433" d="M43.366,226.311a2.066,2.066,0,0,1-2.066-2.066V195.461a5.165,5.165,0,0,1,5.161-5.161H51a5.165,5.165,0,0,1,5.161,5.161v19.808a2.066,2.066,0,0,1-4.132,0V195.461A1.029,1.029,0,0,0,51,194.432H46.461a1.029,1.029,0,0,0-1.029,1.029v28.784A2.071,2.071,0,0,1,43.366,226.311Z" transform="translate(-41.3 -190.3)" fill="#fff"/>
    </g>
  </g>
  <g id="g2829" transform="translate(0 30.842)">
    <g id="path2831" transform="translate(0 0)">
      <path id="Path_13434" data-name="Path 13434" d="M-17.934,400.583A2.066,2.066,0,0,1-20,398.517V383.761a5.165,5.165,0,0,1,5.161-5.161H-10.3a5.165,5.165,0,0,1,5.161,5.161v5.471A2.066,2.066,0,0,1-7.2,391.3a2.061,2.061,0,0,1-2.066-2.066v-5.471a1.029,1.029,0,0,0-1.029-1.029h-4.542a1.029,1.029,0,0,0-1.029,1.029v14.756A2.076,2.076,0,0,1-17.934,400.583Z" transform="translate(20 -378.6)" fill="#fff"/>
    </g>
  </g>
  <g id="g2833" transform="translate(37.961 0)">
    <g id="path2835" transform="translate(0)">
      <path id="Path_13435" data-name="Path 13435" d="M104.666,29.516A2.066,2.066,0,0,1,102.6,27.45V-17.839A5.165,5.165,0,0,1,107.761-23H112.3a5.165,5.165,0,0,1,5.161,5.161V18.474a2.066,2.066,0,1,1-4.132,0V-17.839a1.029,1.029,0,0,0-1.029-1.029h-4.542a1.029,1.029,0,0,0-1.029,1.029V27.45A2.066,2.066,0,0,1,104.666,29.516Z" transform="translate(-102.6 23)" fill="#fff"/>
    </g>
  </g>
  <g id="g2837" transform="translate(0 3.295)">
    <g id="path2839">
      <path id="Path_13436" data-name="Path 13436" d="M-100.783-369h-3.072a5.184,5.184,0,0,1-3.606-1.431,4.982,4.982,0,0,1-1.54-3.629,2.066,2.066,0,0,1,2.066-2.066,2.061,2.061,0,0,1,2.066,2.066.947.947,0,0,0,1.021.929h3.072a1.6,1.6,0,0,0,1.687-1.571v-.178a1.747,1.747,0,0,0-1.687-1.756h-1.888a5.789,5.789,0,0,1-4.093-1.664,5.714,5.714,0,0,1-1.71-4.1v-.147a5.7,5.7,0,0,1,1.71-4.093,5.8,5.8,0,0,1,4.093-1.656h1.787a5.242,5.242,0,0,1,3.621,1.424,5.021,5.021,0,0,1,1.563,3.652,2.066,2.066,0,0,1-2.066,2.066,2.059,2.059,0,0,1-2.058-2.066,1.006,1.006,0,0,0-1.068-.944h-1.787a1.612,1.612,0,0,0-1.679,1.617v.147a1.639,1.639,0,0,0,1.679,1.633h1.888a5.86,5.86,0,0,1,5.819,5.881v.178A5.706,5.706,0,0,1-100.783-369Z" transform="translate(109 388.3)" fill="#fff"/>
    </g>
  </g>
  <g id="g2841" transform="translate(4.951)">
    <g id="path2843" transform="translate(0)">
      <path id="Path_13437" data-name="Path 13437" d="M-1.934-484.881A2.066,2.066,0,0,1-4-486.947v-2.987A2.061,2.061,0,0,1-1.934-492a2.061,2.061,0,0,1,2.066,2.066v2.987A2.076,2.076,0,0,1-1.934-484.881Z" transform="translate(4 492)" fill="#fff"/>
    </g>
  </g>
  <g id="g2845" transform="translate(4.951 19.032)">
    <g id="path2847" transform="translate(0)">
      <path id="Path_13438" data-name="Path 13438" d="M-1.934-54.737A2.066,2.066,0,0,1-4-56.8v-2.631A2.066,2.066,0,0,1-1.934-61.5,2.061,2.061,0,0,1,.132-59.434V-56.8A2.076,2.076,0,0,1-1.934-54.737Z" transform="translate(4 61.5)" fill="#fff"/>
    </g>
  </g>
</svg>
