<svg xmlns="http://www.w3.org/2000/svg" width="57.576" height="70.625" viewBox="0 0 57.576 70.625">
  <g id="lakewood-loves-grid-icon3" transform="translate(-47.3)">
    <g id="Group_5824" data-name="Group 5824" transform="translate(50.309)">
      <g id="Group_5821" data-name="Group 5821" transform="translate(0)">
        <g id="Group_5820" data-name="Group 5820">
          <path id="Path_13427" data-name="Path 13427" d="M101.461,25.615h-16.9a2.754,2.754,0,0,1-2.331-1.283l-12.69-20.1A2.764,2.764,0,0,1,71.873,0h16.9A2.754,2.754,0,0,1,91.1,1.283L97.116,10.8a2.759,2.759,0,1,1-4.662,2.952l-5.2-8.235H76.881l9.2,14.58h15.38a2.759,2.759,0,1,1,0,5.518Z" transform="translate(-69.117)" fill="#fff"/>
        </g>
      </g>
      <g id="Group_5823" data-name="Group 5823" transform="translate(16.456 0.014)">
        <g id="Group_5822" data-name="Group 5822">
          <path id="Path_13428" data-name="Path 13428" d="M208.071,25.7h-16.9a2.751,2.751,0,0,1-2.331-4.221l12.69-20.1A2.754,2.754,0,0,1,203.864.1h16.9a2.751,2.751,0,0,1,2.331,4.221l-12.69,20.1A2.772,2.772,0,0,1,208.071,25.7Zm-11.9-5.518H206.54L215.754,5.6H205.381Z" transform="translate(-188.417 -0.1)" fill="#fff"/>
        </g>
      </g>
    </g>
    <g id="Group_5825" data-name="Group 5825" transform="translate(63.891 31.629)">
      <path id="Path_13429" data-name="Path 13429" d="M183.64,253.122a5.7,5.7,0,0,1-1.779-.276l-2.069-.635-2.083.635a6,6,0,0,1-7.752-5.642l-.028-2.166-1.255-1.779a5.989,5.989,0,0,1,2.966-9.118l2.055-.7L175,231.7a6,6,0,0,1,9.6,0l1.31,1.738,2.055.7a5.971,5.971,0,0,1,3.766,3.821,5.9,5.9,0,0,1-.8,5.3l-1.255,1.779-.028,2.166a5.927,5.927,0,0,1-2.469,4.759A6.177,6.177,0,0,1,183.64,253.122Zm-3.862-18.3a.456.456,0,0,0-.386.193l-1.807,2.414a2.747,2.747,0,0,1-1.31.952l-2.855.979a.5.5,0,0,0-.3.3.436.436,0,0,0,.069.414l1.738,2.469a2.709,2.709,0,0,1,.5,1.545l.041,3.021a.469.469,0,0,0,.607.441l2.883-.883a2.73,2.73,0,0,1,1.628,0l2.883.883a.434.434,0,0,0,.414-.069.467.467,0,0,0,.193-.372l.041-3.021a2.816,2.816,0,0,1,.5-1.545l1.738-2.469a.483.483,0,0,0,.069-.414.464.464,0,0,0-.3-.3l-2.855-.979a2.747,2.747,0,0,1-1.31-.952l-1.807-2.414h0A.417.417,0,0,0,179.778,234.818Z" transform="translate(-167.581 -229.3)" fill="#fff"/>
    </g>
    <g id="Group_5826" data-name="Group 5826" transform="translate(47.3 16.877)">
      <path id="Path_13430" data-name="Path 13430" d="M76.088,176.1a28.413,28.413,0,0,1-13.877-53.41,2.756,2.756,0,1,1,2.635,4.842,22.895,22.895,0,0,0,11.242,43.051,23.441,23.441,0,0,0,11.49-2.993,2.757,2.757,0,1,1,2.69,4.814A28.99,28.99,0,0,1,76.088,176.1Z" transform="translate(-47.3 -122.353)" fill="#fff"/>
    </g>
    <g id="Group_5827" data-name="Group 5827" transform="translate(86.056 16.947)">
      <path id="Path_13431" data-name="Path 13431" d="M340.957,163.5a2.713,2.713,0,0,1-1.366-.372,2.756,2.756,0,0,1-1.021-3.766,22.628,22.628,0,0,0,3.007-11.3,22.951,22.951,0,0,0-11.89-20.029,2.76,2.76,0,0,1,2.676-4.828,28.316,28.316,0,0,1,10.98,38.9A2.739,2.739,0,0,1,340.957,163.5Z" transform="translate(-328.262 -122.862)" fill="#fff"/>
    </g>
  </g>
</svg>
