<svg xmlns="http://www.w3.org/2000/svg" width="20.586" height="17.655" viewBox="0 0 20.586 17.655">
  <g id="left-arrow" transform="translate(0 -31.842)">
    <g id="Group_21" data-name="Group 21" transform="translate(0 31.842)">
      <path id="Path_8" data-name="Path 8" d="M19.349,39.224a1.472,1.472,0,0,0-.255-.019H4.571l.317-.147a2.946,2.946,0,0,0,.832-.589L9.792,34.4a1.524,1.524,0,0,0,.214-1.952A1.473,1.473,0,0,0,7.8,32.253L.432,39.618a1.473,1.473,0,0,0,0,2.083h0L7.8,49.067a1.473,1.473,0,0,0,2.209-.147,1.524,1.524,0,0,0-.214-1.952l-4.065-4.08a2.946,2.946,0,0,0-.736-.538l-.442-.2H19.013a1.525,1.525,0,0,0,1.554-1.237A1.473,1.473,0,0,0,19.349,39.224Z" transform="translate(0 -31.842)" fill="#fff"/>
    </g>
  </g>
</svg>
