<svg id="linkedin" xmlns="http://www.w3.org/2000/svg" width="21.489" height="21.489" viewBox="0 0 21.489 21.489">
  <g id="linkedin-2" data-name="linkedin">
    <path id="icon" d="M18.558,0H2.93A2.93,2.93,0,0,0,0,2.93V18.558a2.93,2.93,0,0,0,2.93,2.93H18.558a2.93,2.93,0,0,0,2.93-2.93V2.93A2.93,2.93,0,0,0,18.558,0ZM7.326,17.005a.453.453,0,0,1-.453.454H4.942a.453.453,0,0,1-.454-.454V8.913a.454.454,0,0,1,.454-.454h1.93a.454.454,0,0,1,.453.454ZM5.907,7.692A1.831,1.831,0,1,1,7.738,5.861,1.831,1.831,0,0,1,5.907,7.692Zm11.509,9.345a.416.416,0,0,1-.418.418H14.922a.416.416,0,0,1-.418-.418V13.246c0-.567.166-2.481-1.481-2.481-1.276,0-1.536,1.31-1.587,1.9v4.378a.418.418,0,0,1-.412.418h-2a.416.416,0,0,1-.416-.418V8.877A.416.416,0,0,1,9.02,8.46h2a.418.418,0,0,1,.418.418v.706a2.84,2.84,0,0,1,2.674-1.259c3.319,0,3.3,3.1,3.3,4.8Z" fill="#ec7223"/>
  </g>
</svg>
