<svg xmlns="http://www.w3.org/2000/svg" width="35" height="35" viewBox="0 0 35 35">
  <g id="linkedin-icon1" transform="translate(0.308)">
    <circle id="Ellipse_411" data-name="Ellipse 411" cx="17.5" cy="17.5" r="17.5" transform="translate(-0.308)" fill="#ec7223"/>
    <path id="Icon_awesome-linkedin-in" data-name="Icon awesome-linkedin-in" d="M3.978,17.771H.294V5.907H3.978ZM2.134,4.288A2.144,2.144,0,1,1,4.267,2.134,2.152,2.152,0,0,1,2.134,4.288ZM17.767,17.771H14.09V12c0-1.376-.028-3.142-1.915-3.142-1.915,0-2.209,1.5-2.209,3.042v5.875H6.286V5.907H9.819V7.525h.052a3.871,3.871,0,0,1,3.486-1.916c3.729,0,4.414,2.455,4.414,5.645v6.517Z" transform="translate(8.282 8.446)" fill="#fff"/>
  </g>
</svg>
