<svg xmlns="http://www.w3.org/2000/svg" width="83.246" height="61.041" viewBox="0 0 83.246 61.041">
  <g id="locations-icon" transform="translate(0 -67.488)">
    <g id="Group_32" data-name="Group 32" transform="translate(0 67.488)">
      <path id="Path_48" data-name="Path 48" d="M206.106,143.566a9.059,9.059,0,1,0,9.059,9.059A9.069,9.069,0,0,0,206.106,143.566Zm0,13.24a4.181,4.181,0,1,1,4.181-4.181A4.186,4.186,0,0,1,206.106,156.806Z" transform="translate(-164.63 -131.05)" fill="#ec7223"/>
      <path id="Path_49" data-name="Path 49" d="M66.319,72.692a16.656,16.656,0,0,0-8.537,2.291,21.167,21.167,0,0,0-32.309-.012,16.4,16.4,0,0,0-8.547-2.28A16.946,16.946,0,0,0,0,89.619v.06A18.66,18.66,0,0,0,2.578,99.14l12.133,20.606a2.439,2.439,0,0,0,2.093,1.2h.008a2.439,2.439,0,0,0,2.093-1.187l8.069-13.491,12.4,21.057a2.439,2.439,0,0,0,2.093,1.2h.008a2.439,2.439,0,0,0,2.093-1.187l12.608-21.079L64.1,119.745a2.439,2.439,0,0,0,2.093,1.2h.009a2.439,2.439,0,0,0,2.093-1.187L80.6,99.19a18.651,18.651,0,0,0,2.644-9.572A16.946,16.946,0,0,0,66.319,72.692ZM16.83,113.73,6.782,96.665a13.781,13.781,0,0,1-1.9-6.986v-.06A12.063,12.063,0,0,1,16.927,77.57a11.7,11.7,0,0,1,5.827,1.464,21.039,21.039,0,0,0-1.722,4.616,7.553,7.553,0,1,0,.483,12.164,23.426,23.426,0,0,0,2.15,4.834l.491.834Zm2.658-23.82a2.674,2.674,0,1,1-2.674-2.674A2.677,2.677,0,0,1,19.487,89.91Zm22,31.4L27.868,98.173a18.562,18.562,0,0,1-2.565-9.41v-.078a16.319,16.319,0,0,1,32.638,0,18.552,18.552,0,0,1-2.63,9.52l-1.181,1.974c-.019.03-.037.06-.054.091ZM76.416,96.687,66.223,113.727l-7.194-12.235.469-.784a23.419,23.419,0,0,0,2.166-4.768,7.552,7.552,0,1,0,.519-12.417A21.052,21.052,0,0,0,60.5,79.041a11.7,11.7,0,0,1,5.823-1.471A12.063,12.063,0,0,1,78.368,89.619a13.771,13.771,0,0,1-1.952,7.068ZM63.531,89.91a2.674,2.674,0,1,1,2.674,2.674A2.677,2.677,0,0,1,63.531,89.91Z" transform="translate(0 -67.488)" fill="#fff"/>
    </g>
  </g>
</svg>
