<svg xmlns="http://www.w3.org/2000/svg" width="117.691" height="86.298" viewBox="0 0 117.691 86.298">
  <g id="locations-hover-icon" transform="translate(0 -67.488)">
    <g id="Group_32" data-name="Group 32" transform="translate(0 67.488)">
      <path id="Path_48" data-name="Path 48" d="M206.106,143.566a9.059,9.059,0,1,0,9.059,9.059A9.069,9.069,0,0,0,206.106,143.566Zm0,13.24a4.181,4.181,0,1,1,4.181-4.181A4.186,4.186,0,0,1,206.106,156.806Z" transform="translate(-147.486 -123.686)" fill="#ec7223"/>
      <path id="Path_49" data-name="Path 49" d="M93.76,74.845a23.547,23.547,0,0,0-12.069,3.24,29.925,29.925,0,0,0-45.678-.017,23.178,23.178,0,0,0-12.083-3.223A23.958,23.958,0,0,0,0,98.776v.085a26.381,26.381,0,0,0,3.645,13.376L20.8,141.369a3.448,3.448,0,0,0,2.959,1.7h.012a3.449,3.449,0,0,0,2.959-1.678l11.408-19.073,17.528,29.77a3.448,3.448,0,0,0,2.959,1.7h.012a3.449,3.449,0,0,0,2.959-1.678l17.824-29.8,11.206,19.06a3.449,3.449,0,0,0,2.959,1.7H93.6a3.449,3.449,0,0,0,2.959-1.678l17.395-29.082a26.369,26.369,0,0,0,3.738-13.532A23.958,23.958,0,0,0,93.76,74.845ZM23.793,132.864,9.588,108.738A19.484,19.484,0,0,1,6.9,98.861v-.085A17.054,17.054,0,0,1,23.931,81.741a16.542,16.542,0,0,1,8.238,2.069,29.745,29.745,0,0,0-2.434,6.527,10.678,10.678,0,1,0,.683,17.2,33.118,33.118,0,0,0,3.039,6.835l.694,1.179ZM27.55,99.188a3.781,3.781,0,1,1-3.781-3.781A3.785,3.785,0,0,1,27.55,99.188Zm31.11,44.393L39.4,110.87a26.243,26.243,0,0,1-3.626-13.3v-.11a23.072,23.072,0,0,1,46.143,0A26.229,26.229,0,0,1,78.2,110.915l-1.669,2.791c-.027.042-.052.085-.077.128Zm49.375-34.813L93.625,132.86l-10.17-17.3.663-1.108a33.109,33.109,0,0,0,3.062-6.741,10.677,10.677,0,1,0,.733-17.554,29.762,29.762,0,0,0-2.385-6.337,16.545,16.545,0,0,1,8.232-2.08,17.054,17.054,0,0,1,17.035,17.035,19.469,19.469,0,0,1-2.76,9.992Zm-18.216-9.58a3.781,3.781,0,1,1,3.781,3.781A3.785,3.785,0,0,1,89.819,99.188Z" transform="translate(0 -67.488)" fill="#fff"/>
    </g>
  </g>
</svg>
