<svg id="left-arrow" xmlns="http://www.w3.org/2000/svg" width="75.429" height="25.997" viewBox="0 0 75.429 25.997">
  <g id="Group_84" data-name="Group 84" transform="translate(0 0)">
    <path id="Path_64" data-name="Path 64" d="M-21.142,143.515l0,0,10.955-10.9a2.1,2.1,0,0,1,2.965.007,2.1,2.1,0,0,1-.007,2.965l-7.355,7.319H51.575a2.1,2.1,0,1,1,0,4.193H-14.582l7.355,7.319a2.1,2.1,0,0,1,.007,2.965,2.1,2.1,0,0,1-2.965.007l-10.955-10.9,0,0A2.1,2.1,0,0,1-21.142,143.515Z" transform="translate(21.757 -132)" fill="#fff"/>
  </g>
</svg>
