<svg xmlns="http://www.w3.org/2000/svg" width="32.598" height="32.597" viewBox="0 0 32.598 32.597">
  <path id="megaphone-icon" d="M15.672,1.328a1.273,1.273,0,1,0-1.8,1.8l.835.835A53.061,53.061,0,0,1,2.473,24.8l-.3-.3a1.273,1.273,0,1,0-1.791,1.81l5.985,5.921a1.273,1.273,0,0,0,1.791-1.811L7.828,30.1q1.067-1.014,2.191-1.968l.578.926a3.82,3.82,0,0,0,5.36,1.156l.011-.007,2.656-1.811A3.826,3.826,0,0,0,19.68,23.1l-.862-1.3-.629-.952a1.273,1.273,0,0,0-1.7-.4A55.92,55.92,0,0,0,6.017,28.3L4.284,26.59a56.243,56.243,0,0,0,7.328-9.563A53.777,53.777,0,0,0,16.736,5.994l9.884,9.884c-1.5.5-3,1.068-4.462,1.7a1.273,1.273,0,1,0,1.016,2.335,49.993,49.993,0,0,1,5.476-2.011l.82.819a1.273,1.273,0,0,0,1.8-1.8Zm1.064,21.943.824,1.241a1.275,1.275,0,0,1-.354,1.764l-.011.007-2.655,1.81a1.274,1.274,0,0,1-1.782-.388l-.743-1.19a53.623,53.623,0,0,1,4.721-3.244ZM25.267,7.331a1.273,1.273,0,0,1,0-1.8l3.12-3.12a1.273,1.273,0,1,1,1.8,1.8l-3.12,3.12a1.273,1.273,0,0,1-1.8,0Zm-4-4.168L22.031.871a1.273,1.273,0,1,1,2.416.805l-.764,2.292a1.273,1.273,0,1,1-2.416-.805Zm10.45,7.408-2.355.764a1.273,1.273,0,1,1-.786-2.422l2.355-.764a1.273,1.273,0,1,1,.786,2.422Zm0,0" transform="translate(-0.001 0)" fill="#fff"/>
</svg>
