<svg xmlns="http://www.w3.org/2000/svg" width="32" height="29.288" viewBox="0 0 32 29.288">
  <g id="note-icon" transform="translate(0 -21.7)">
    <g id="Group_5775" data-name="Group 5775" transform="translate(24.645 22.762)">
      <g id="Group_5773" data-name="Group 5773" transform="translate(0 21.808)">
        <path id="Path_13369" data-name="Path 13369" d="M398.08,394.118a2.091,2.091,0,0,1-1.9-1.194l-1.65-3.431a1.238,1.238,0,0,1,.069-1.206,1.262,1.262,0,0,1,1.056-.587H400.5a1.253,1.253,0,0,1,1.125,1.793l-1.65,3.431A2.1,2.1,0,0,1,398.08,394.118Zm-.437-3.918.437.906.437-.906Z" transform="translate(-394.406 -387.7)" fill="#ec7223"/>
      </g>
      <g id="Group_5774" data-name="Group 5774">
        <path id="Path_13370" data-name="Path 13370" d="M398.074,63.008H395.65a1.253,1.253,0,0,1-1.25-1.25v-20.1a2.964,2.964,0,0,1,2.962-2.962h1.431a2.964,2.964,0,0,1,2.962,2.962V55.5a1.25,1.25,0,1,1-2.5,0V41.662a.461.461,0,0,0-.462-.462h-1.431a.461.461,0,0,0-.462.462V60.5h1.175a1.253,1.253,0,0,1,0,2.506Z" transform="translate(-394.4 -38.7)" fill="#ec7223"/>
      </g>
    </g>
    <g id="Group_5787" data-name="Group 5787" transform="translate(0 21.7)">
      <g id="Group_5776" data-name="Group 5776" transform="translate(0 0.85)">
        <path id="Path_13371" data-name="Path 13371" d="M17.372,63.738H5a5.006,5.006,0,0,1-5-5V40.3a5.006,5.006,0,0,1,5-5H17.372a5.006,5.006,0,0,1,5,5v18.44A5.006,5.006,0,0,1,17.372,63.738ZM5,37.8a2.5,2.5,0,0,0-2.5,2.5v18.44a2.5,2.5,0,0,0,2.5,2.5H17.372a2.5,2.5,0,0,0,2.5-2.5V40.3a2.5,2.5,0,0,0-2.5-2.5Z" transform="translate(0 -35.3)" fill="#ec7223"/>
      </g>
      <g id="Group_5777" data-name="Group 5777" transform="translate(0.237 6.605)">
        <path id="Path_13372" data-name="Path 13372" d="M24.5,129.9H5.05a1.25,1.25,0,0,1,0-2.5H24.5a1.25,1.25,0,0,1,0,2.5Z" transform="translate(-3.8 -127.4)" fill="#ec7223"/>
      </g>
      <g id="Group_5782" data-name="Group 5782" transform="translate(2.893 0)">
        <g id="Group_5778" data-name="Group 5778">
          <path id="Path_13373" data-name="Path 13373" d="M47.55,26.387a1.253,1.253,0,0,1-1.25-1.25V22.95a1.25,1.25,0,0,1,2.5,0v2.187A1.253,1.253,0,0,1,47.55,26.387Z" transform="translate(-46.3 -21.7)" fill="#ec7223"/>
        </g>
        <g id="Group_5779" data-name="Group 5779" transform="translate(4.712)">
          <path id="Path_13374" data-name="Path 13374" d="M122.95,26.387a1.253,1.253,0,0,1-1.25-1.25V22.95a1.25,1.25,0,1,1,2.5,0v2.187A1.253,1.253,0,0,1,122.95,26.387Z" transform="translate(-121.7 -21.7)" fill="#ec7223"/>
        </g>
        <g id="Group_5780" data-name="Group 5780" transform="translate(9.423)">
          <path id="Path_13375" data-name="Path 13375" d="M198.35,26.387a1.253,1.253,0,0,1-1.25-1.25V22.95a1.25,1.25,0,1,1,2.5,0v2.187A1.253,1.253,0,0,1,198.35,26.387Z" transform="translate(-197.1 -21.7)" fill="#ec7223"/>
        </g>
        <g id="Group_5781" data-name="Group 5781" transform="translate(14.135)">
          <path id="Path_13376" data-name="Path 13376" d="M273.75,26.387a1.253,1.253,0,0,1-1.25-1.25V22.95a1.25,1.25,0,1,1,2.5,0v2.187A1.253,1.253,0,0,1,273.75,26.387Z" transform="translate(-272.5 -21.7)" fill="#ec7223"/>
        </g>
      </g>
      <g id="Group_5786" data-name="Group 5786" transform="translate(4.255 11.36)">
        <g id="Group_5783" data-name="Group 5783">
          <path id="Path_13377" data-name="Path 13377" d="M80.71,206H69.35a1.25,1.25,0,0,1,0-2.5H80.71a1.25,1.25,0,0,1,0,2.5Z" transform="translate(-68.1 -203.5)" fill="#ec7223"/>
        </g>
        <g id="Group_5784" data-name="Group 5784" transform="translate(0 4.862)">
          <path id="Path_13378" data-name="Path 13378" d="M80.71,283.8H69.35a1.25,1.25,0,0,1,0-2.5H80.71a1.25,1.25,0,0,1,0,2.5Z" transform="translate(-68.1 -281.3)" fill="#ec7223"/>
        </g>
        <g id="Group_5785" data-name="Group 5785" transform="translate(0 9.729)">
          <path id="Path_13379" data-name="Path 13379" d="M80.71,361.7H69.35a1.25,1.25,0,1,1,0-2.5H80.71a1.25,1.25,0,1,1,0,2.5Z" transform="translate(-68.1 -359.2)" fill="#ec7223"/>
        </g>
      </g>
    </g>
  </g>
</svg>
