<svg id="right-arrow" xmlns="http://www.w3.org/2000/svg" width="20.586" height="17.655" viewBox="0 0 20.586 17.655">
  <g id="Group_21" data-name="Group 21" transform="translate(0 0)">
    <path id="Path_8" data-name="Path 8" d="M1.237,39.224a1.472,1.472,0,0,1,.255-.019H16.015l-.317-.147a2.946,2.946,0,0,1-.832-.589L10.794,34.4a1.524,1.524,0,0,1-.214-1.952,1.473,1.473,0,0,1,2.209-.191l7.365,7.365a1.473,1.473,0,0,1,0,2.083h0l-7.365,7.365a1.473,1.473,0,0,1-2.209-.147,1.524,1.524,0,0,1,.214-1.952l4.065-4.08a2.946,2.946,0,0,1,.736-.538l.442-.2H1.573A1.525,1.525,0,0,1,.019,40.914,1.473,1.473,0,0,1,1.237,39.224Z" transform="translate(0 -31.842)" fill="#fff"/>
  </g>
</svg>
