<svg id="speechbox-bg-img2" xmlns="http://www.w3.org/2000/svg" width="503.904" height="391.411" viewBox="0 0 503.904 391.411">
  <path id="Path_13557" data-name="Path 13557" d="M52.129,114.311A101.336,101.336,0,0,1,152.788,0a101.017,101.017,0,0,1,64.635,23.284,73.043,73.043,0,0,1,83.249,9.965A101.46,101.46,0,0,1,452.261,86.956,69.786,69.786,0,0,1,455.7,220.708a101.574,101.574,0,0,1-80.273,81.851,27.275,27.275,0,1,1-39.305.012,100.975,100.975,0,0,1-36.963-15.341,101.45,101.45,0,0,1-147.965,4.242A101.489,101.489,0,1,1,52.129,114.311" transform="translate(0 0.003)" fill="#111342"/>
  <path id="Path_13555" data-name="Path 13555" d="M68.749,120.2a15.416,15.416,0,1,1-15.416,15.416A15.416,15.416,0,0,1,68.749,120.2" transform="translate(259.756 240.377)" fill="#111342"/>
  <path id="Path_13558" data-name="Path 13558" d="M0,202.988A101.45,101.45,0,0,1,52.129,114.31,101.445,101.445,0,0,1,217.424,23.283a73.057,73.057,0,0,1,83.249,9.965,101.459,101.459,0,0,1,151.589,53.71A69.784,69.784,0,0,1,455.7,220.707a101.574,101.574,0,0,1-80.273,81.851,27.275,27.275,0,1,1-39.305.012,100.924,100.924,0,0,1-36.963-15.341,101.45,101.45,0,0,1-147.965,4.242A101.481,101.481,0,0,1,0,202.988m152.953,86.734A98.969,98.969,0,0,0,297.3,285.585a2.477,2.477,0,0,1,3.243-.411,98.1,98.1,0,0,0,36.054,14.96,2.483,2.483,0,0,1,1.311,4.155,24.793,24.793,0,1,0,35.73-.009,2.481,2.481,0,0,1,1.308-4.155,99.459,99.459,0,0,0,78.308-79.847,2.483,2.483,0,0,1,1.677-1.932,67.3,67.3,0,0,0-3.312-128.994,2.478,2.478,0,0,1-1.716-1.626,98.982,98.982,0,0,0-147.878-52.4,2.479,2.479,0,0,1-3.006-.234A70.577,70.577,0,0,0,218.6,25.47a2.48,2.48,0,0,1-2.757-.273A98.91,98.91,0,0,0,54.592,114a2.48,2.48,0,0,1-1.254,2.478,99.007,99.007,0,1,0,96.636,172.833,2.48,2.48,0,0,1,2.979.411" transform="translate(0 0.001)" fill="#ec7223"/>
  <path id="Path_13556" data-name="Path 13556" d="M68.749,120.2a15.416,15.416,0,1,1-15.416,15.416A15.416,15.416,0,0,1,68.749,120.2m0,28.35a12.933,12.933,0,1,0-12.935-12.935,12.948,12.948,0,0,0,12.935,12.935" transform="translate(259.756 240.377)" fill="#111342"/>
</svg>
