<svg xmlns="http://www.w3.org/2000/svg" width="497.127" height="382.281" viewBox="0 0 497.127 382.281">
  <g id="speechbox-bg-img3" transform="translate(-13142 4296)">
    <path id="Path_13561" data-name="Path 13561" d="M497.127,194.117a85.4,85.4,0,0,0-27.584-62.945A61.5,61.5,0,0,0,400.989,45.4,84.891,84.891,0,0,0,266.924,23.776,61.313,61.313,0,0,0,188.812,32.5,71.878,71.878,0,0,0,72.491,109.473a85.652,85.652,0,0,0,5.049,169.9,85.526,85.526,0,0,0,69.889,36.171c.217,0,.426-.016.64-.016a85.617,85.617,0,0,0,137.087,26.048,62.088,62.088,0,0,0,61.211,40.644,81.678,81.678,0,0,1-9.115-52.143c1.64-.522,3.255-1.082,4.873-1.637,1.876.124,3.761.209,5.667.209a85.644,85.644,0,0,0,77.911-50.08,85.658,85.658,0,0,0,71.422-84.452" transform="translate(13142 -4296)" fill="#111342"/>
    <path id="Path_13562" data-name="Path 13562" d="M497.127,194.117a85.4,85.4,0,0,0-27.584-62.945A61.5,61.5,0,0,0,400.989,45.4,84.891,84.891,0,0,0,266.924,23.776,61.313,61.313,0,0,0,188.812,32.5,71.878,71.878,0,0,0,72.491,109.473a85.652,85.652,0,0,0,5.049,169.9,85.526,85.526,0,0,0,69.889,36.171c.217,0,.426-.016.64-.016a85.617,85.617,0,0,0,137.087,26.048,62.1,62.1,0,0,0,61.211,40.644,81.678,81.678,0,0,1-9.115-52.143c1.64-.522,3.255-1.082,4.873-1.637,1.874.124,3.761.209,5.667.209a85.644,85.644,0,0,0,77.911-50.08,85.658,85.658,0,0,0,71.422-84.452M422.6,277.152a82.484,82.484,0,0,1-74.81,48.088c-1.615,0-3.346-.063-5.448-.2a3.354,3.354,0,0,0-1.33.179l-.341.115c-1.478.508-2.956,1.016-4.456,1.494a3.409,3.409,0,0,0-2.332,2.7,85.327,85.327,0,0,0,6.956,49.278,58.649,58.649,0,0,1-52.495-38.421,3.406,3.406,0,0,0-5.552-1.266A82.208,82.208,0,0,1,151.169,314.1a3.411,3.411,0,0,0-3.1-1.983h-.019l-.624.017A82.427,82.427,0,0,1,80.323,277.4a3.419,3.419,0,0,0-2.461-1.423A81.834,81.834,0,0,1,3.409,194.117c0-40.215,29.919-75.156,69.6-81.274a3.412,3.412,0,0,0,2.692-4.508A68.466,68.466,0,0,1,186.508,35.007a3.41,3.41,0,0,0,4.764-.151,57.9,57.9,0,0,1,73.768-8.236,3.415,3.415,0,0,0,4.25-.387A81.48,81.48,0,0,1,397.973,46.99a3.414,3.414,0,0,0,3.717,1.747,58.1,58.1,0,0,1,70.03,56.835,57.581,57.581,0,0,1-5.274,24.177,3.41,3.41,0,0,0,.786,3.926,82.222,82.222,0,0,1-42.089,141.532,3.415,3.415,0,0,0-2.538,1.945" transform="translate(13142 -4296)" fill="#ec7223"/>
  </g>
</svg>
