<svg xmlns="http://www.w3.org/2000/svg" width="503.904" height="423.547" viewBox="0 0 503.904 423.547">
  <g id="speechbox-bg-img1" transform="translate(-278 -7174.255)">
    <path id="Path_13551" data-name="Path 13551" d="M451.774,114.311A101.336,101.336,0,0,0,351.116,0,101.016,101.016,0,0,0,286.48,23.284a73.042,73.042,0,0,0-83.249,9.965A101.46,101.46,0,0,0,51.643,86.956a69.786,69.786,0,0,0-3.438,133.752,101.574,101.574,0,0,0,80.273,81.851,27.275,27.275,0,1,0,39.305.012,100.975,100.975,0,0,0,36.963-15.341,101.45,101.45,0,0,0,147.965,4.242,101.489,101.489,0,1,0,99.063-177.161" transform="translate(278 7174.258)" fill="#111342"/>
    <path id="Path_13553" data-name="Path 13553" d="M68.749,120.2a15.416,15.416,0,1,0,15.416,15.416A15.416,15.416,0,0,0,68.749,120.2" transform="translate(384.651 7414.632)" fill="#111342"/>
    <path id="Path_13563" data-name="Path 13563" d="M65.629,120.2a12.3,12.3,0,1,0,12.3,12.3,12.3,12.3,0,0,0-12.3-12.3" transform="translate(422.771 7439.751)" fill="#111342"/>
    <path id="Path_13565" data-name="Path 13565" d="M61.885,120.2a8.552,8.552,0,1,0,8.552,8.552,8.553,8.553,0,0,0-8.552-8.552" transform="translate(459.515 7460.495)" fill="#111342"/>
    <path id="Path_13552" data-name="Path 13552" d="M503.9,202.988a101.45,101.45,0,0,0-52.129-88.678A101.445,101.445,0,0,0,286.48,23.283a73.057,73.057,0,0,0-83.249,9.965A101.459,101.459,0,0,0,51.643,86.958a69.784,69.784,0,0,0-3.438,133.749,101.574,101.574,0,0,0,80.273,81.851,27.275,27.275,0,1,0,39.305.012,100.923,100.923,0,0,0,36.963-15.341,101.45,101.45,0,0,0,147.965,4.242A101.481,101.481,0,0,0,503.9,202.988M350.951,289.722A98.969,98.969,0,0,1,206.6,285.585a2.477,2.477,0,0,0-3.243-.411,98.1,98.1,0,0,1-36.054,14.96A2.483,2.483,0,0,0,166,304.289a24.793,24.793,0,1,1-35.73-.009,2.481,2.481,0,0,0-1.308-4.155A99.459,99.459,0,0,1,50.65,220.278a2.483,2.483,0,0,0-1.677-1.932A67.3,67.3,0,0,1,52.285,89.352,2.478,2.478,0,0,0,54,87.726a98.982,98.982,0,0,1,147.878-52.4,2.479,2.479,0,0,0,3.006-.234,70.577,70.577,0,0,1,80.423-9.626,2.48,2.48,0,0,0,2.757-.273A98.91,98.91,0,0,1,449.312,114a2.48,2.48,0,0,0,1.254,2.478,99.007,99.007,0,1,1-96.636,172.833,2.48,2.48,0,0,0-2.979.411" transform="translate(278 7174.256)" fill="#ec7223"/>
    <path id="Path_13554" data-name="Path 13554" d="M68.749,120.2a15.416,15.416,0,1,0,15.416,15.416A15.416,15.416,0,0,0,68.749,120.2m0,28.35a12.933,12.933,0,1,1,12.935-12.935,12.948,12.948,0,0,1-12.935,12.935" transform="translate(384.651 7414.632)" fill="#ec7223"/>
    <path id="Path_13564" data-name="Path 13564" d="M65.629,120.2a12.3,12.3,0,1,0,12.3,12.3,12.3,12.3,0,0,0-12.3-12.3m0,22.614A10.316,10.316,0,1,1,75.947,132.5a10.328,10.328,0,0,1-10.318,10.318" transform="translate(422.771 7439.751)" fill="#ec7223"/>
    <path id="Path_13566" data-name="Path 13566" d="M61.885,120.2a8.552,8.552,0,1,0,8.552,8.552,8.553,8.553,0,0,0-8.552-8.552m0,15.728a7.175,7.175,0,1,1,7.176-7.176,7.183,7.183,0,0,1-7.176,7.176" transform="translate(459.515 7460.495)" fill="#ec7223"/>
  </g>
</svg>
