<svg xmlns="http://www.w3.org/2000/svg" width="59.355" height="55.924" viewBox="0 0 59.355 55.924">
  <g id="sponsors-plus-img3" transform="translate(0 -14.7)">
    <g id="Group_5958" data-name="Group 5958" transform="translate(0 14.7)">
      <g id="Group_5955" data-name="Group 5955" transform="translate(0 30.912)">
        <g id="Group_5953" data-name="Group 5953" transform="translate(0 8.878)">
          <path id="Path_13538" data-name="Path 13538" d="M20.55,374.134H2.318A2.325,2.325,0,0,1,0,371.816v-6.131A7.687,7.687,0,0,1,7.684,358H20.561a2.325,2.325,0,0,1,2.318,2.318v11.5A2.335,2.335,0,0,1,20.55,374.134ZM4.636,369.5h13.6v-6.862H7.684a3.05,3.05,0,0,0-3.048,3.037Z" transform="translate(0 -358)" fill="#fff"/>
        </g>
        <g id="Group_5954" data-name="Group 5954" transform="translate(18.232)">
          <path id="Path_13539" data-name="Path 13539" d="M177.862,306.412H159.618a2.325,2.325,0,0,1-2.318-2.318v-15.01a7.694,7.694,0,0,1,7.684-7.684h12.877a2.325,2.325,0,0,1,2.318,2.318v20.364A2.327,2.327,0,0,1,177.862,306.412Zm-15.925-4.636h13.6v-15.74H164.973a3.052,3.052,0,0,0-3.048,3.048v12.692Z" transform="translate(-157.3 -281.4)" fill="#fff"/>
        </g>
      </g>
      <g id="Group_5956" data-name="Group 5956" transform="translate(45.585 3.581)">
        <path id="Path_13540" data-name="Path 13540" d="M395.618,68.7a2.325,2.325,0,0,1-2.318-2.318V47.918a2.318,2.318,0,1,1,4.636,0V66.382A2.31,2.31,0,0,1,395.618,68.7Z" transform="translate(-393.3 -45.6)" fill="#fff"/>
      </g>
      <g id="Group_5957" data-name="Group 5957" transform="translate(31.846 0)">
        <path id="Path_13541" data-name="Path 13541" d="M290.815,32.109H279.642a4.889,4.889,0,0,1-4.578-6.595l.788-2.109-.788-2.109a4.889,4.889,0,0,1,4.578-6.595h8.6a4.9,4.9,0,0,1,4.891,4.891V29.779A2.313,2.313,0,0,1,290.815,32.109ZM279.642,19.348a.246.246,0,0,0-.209.1.306.306,0,0,0-.035.232l1.09,2.909a2.3,2.3,0,0,1,0,1.623l-1.09,2.909a.227.227,0,0,0,.035.232.235.235,0,0,0,.209.1H288.5V19.6a.257.257,0,0,0-.255-.255Z" transform="translate(-274.757 -14.7)" fill="#fff"/>
      </g>
    </g>
    <g id="Group_5959" data-name="Group 5959" transform="translate(36.475 36.745)">
      <path id="Path_13542" data-name="Path 13542" d="M335.25,238.779H317.018a2.325,2.325,0,0,1-2.318-2.318V212.585a7.694,7.694,0,0,1,7.684-7.684H329.9a7.694,7.694,0,0,1,7.684,7.684V224.87a2.318,2.318,0,1,1-4.636,0V212.585a3.052,3.052,0,0,0-3.048-3.048h-7.511a3.052,3.052,0,0,0-3.048,3.048v21.558H335.25a2.318,2.318,0,0,1,0,4.636Z" transform="translate(-314.7 -204.9)" fill="#fff"/>
    </g>
  </g>
</svg>
