<?xml version="1.0" encoding="utf-8"?>
<!-- Generator: Adobe Illustrator 27.4.0, SVG Export Plug-In . SVG Version: 6.00 Build 0)  -->
<svg version="1.1" id="Capa_1" xmlns="http://www.w3.org/2000/svg" xmlns:xlink="http://www.w3.org/1999/xlink" x="0px" y="0px"
	 viewBox="0 0 512 512" style="enable-background:new 0 0 512 512;" xml:space="preserve">
<style type="text/css">
	.st0{fill:#FFFFFF;}
</style>
<path class="st0" d="M115.9,80C115.9,80,115.9,79.9,115.9,80C115.9,80,115.9,80.3,115.9,80z M487,139.1c1.6,8.2-2,16.5-9.2,20.9
	c-20.2,12.4-36.5,34.6-52.2,56.1c-12.2,16.7-24.9,34-39.8,47.2c-18.6,16.6-38.2,24.6-60,24.6c-15.3,0-31.8-5.1-51.4-16
	c-1,6.8-1.6,13.9-1.6,21c0,11-9,20-20,20s-20-9-20-20c0-46.1,17.2-88.6,48.4-119.5C317,138,368.4,119.5,430,120
	c14.5,0.1,27.8,1.2,40.5,3.3C478.8,124.6,485.4,130.9,487,139.1L487,139.1z M418.3,160.2c-45.5,1.7-83,16-108.9,41.7
	c-9.2,9.1-16.8,19.6-22.6,31.1c16.4,10,29.5,15.1,39,15.1c26.8,0,45.6-25.7,67.5-55.5C401.3,181.6,409.4,170.6,418.3,160.2
	L418.3,160.2z M485.9,85.1c-1.6,0.4-3.2,0.6-4.8,0.6c-9,0-17.2-6.1-19.4-15.2C457.3,52.5,441.4,40,422.9,40
	c-18.9,0-35.4,13.4-39.1,31.9c-1.9,9.5-10.3,16-19.6,16c-1.3,0-2.7-0.1-4-0.4c-10.8-2.2-17.8-12.8-15.6-23.6
	c1.8-8.6,4.9-16.6,9.1-23.9H155.9c-21.6,0-39.3,18.5-40,39.9c0,0,0,0,0,0.1c0,43.3,11.1,97.4,22.7,154.8
	c7.8,38.5,15.9,78.1,21.1,117.2h164.1c9,0,17.2,5.9,19.5,14.7c2.3,8.7-1.2,17.8-9,22.3c-1.8,1.2-21.5,15-21.5,43c0,22,17.9,40,40,40
	c22,0,39.9-18,40-40c0-40.9-9.2-98.3-9.3-98.9c-1.8-10.9,5.6-21.2,16.6-22.9c10.9-1.8,21.2,5.6,22.9,16.6
	c0.4,2.5,9.8,61.2,9.8,105.3c0,44-35.8,79.9-79.8,80c0,0-0.1,0-0.1,0s-0.1,0-0.1,0H90.9c-44.1,0-80-35.9-80-80c0-0.5,0-0.9,0-1.4
	C11.6,380,49.8,356,51.4,355c3.1-1.9,6.8-3,10.5-3h57.5c-5.1-36.1-12.6-73.2-20-109.2C87.5,184.3,76.2,127.8,75.9,81
	c0-44.1,35.9-81,80-81h267c0,0,0,0,0,0s0,0,0,0c0,0,0,0,0.1,0c36.9,0.1,68.8,25.1,77.5,60.9C503.2,71.7,496.6,82.5,485.9,85.1
	L485.9,85.1z M68.6,392c-6.2,5.5-17.7,18.6-17.7,40c0,0.3,0,0.7,0,1c0.5,21.6,18.3,39,40,39h192.8c-6.8-11.8-10.7-25.4-10.7-40
	c0-15.9,3.7-29.2,8.8-40H68.6z M75.9,81C75.8,80.3,75.9,81.7,75.9,81z"/>
</svg>
