<svg xmlns="http://www.w3.org/2000/svg" width="61.928" height="61.928" viewBox="0 0 61.928 61.928">
  <path id="sponsors-plus-img2" d="M29.772,2.523a2.419,2.419,0,0,0-3.421,3.421l1.587,1.587A100.8,100.8,0,0,1,4.7,47.112l-.577-.571a2.419,2.419,0,1,0-3.4,3.439l11.37,11.249a2.419,2.419,0,0,0,3.4-3.44l-.619-.613q2.027-1.926,4.162-3.74l1.1,1.759a7.257,7.257,0,0,0,10.183,2.2l.021-.014,5.046-3.441a7.268,7.268,0,0,0,2.006-10.046L35.75,41.425l-1.2-1.808a2.419,2.419,0,0,0-3.233-.757A106.236,106.236,0,0,0,11.431,53.772L8.139,50.516A106.85,106.85,0,0,0,22.06,32.348a102.164,102.164,0,0,0,9.735-20.96L50.572,30.165c-2.857.946-5.7,2.029-8.478,3.239a2.419,2.419,0,1,0,1.93,4.437,94.978,94.978,0,0,1,10.4-3.82l1.557,1.557a2.419,2.419,0,0,0,3.421-3.421Zm2.021,41.688,1.565,2.357a2.423,2.423,0,0,1-.672,3.351l-.02.014-5.044,3.439a2.42,2.42,0,0,1-3.386-.738l-1.411-2.261a101.872,101.872,0,0,1,8.968-6.162ZM48,13.927a2.419,2.419,0,0,1,0-3.421l5.927-5.927A2.419,2.419,0,0,1,57.349,8l-5.927,5.927a2.419,2.419,0,0,1-3.421,0ZM40.4,6.009l1.451-4.354a2.419,2.419,0,0,1,4.59,1.53L44.992,7.539a2.419,2.419,0,1,1-4.59-1.53ZM60.255,20.081l-4.475,1.451a2.419,2.419,0,1,1-1.493-4.6l4.475-1.451a2.419,2.419,0,1,1,1.493,4.6Zm0,0" transform="translate(-0.001)" fill="#fff"/>
</svg>
