<svg xmlns="http://www.w3.org/2000/svg" width="65.925" height="65.797" viewBox="0 0 65.925 65.797">
  <path id="sponsors-plus-img1" d="M10.671,40.5a2.575,2.575,0,0,0,3.572-.708,22.4,22.4,0,0,1,37.184-.045A2.575,2.575,0,0,0,55.7,36.867,27.484,27.484,0,0,0,42.153,26.321,14.55,14.55,0,1,0,23.7,26.264,27.477,27.477,0,0,0,9.963,36.923,2.575,2.575,0,0,0,10.671,40.5ZM32.963,5.65a9.4,9.4,0,1,1-9.4,9.4A9.41,9.41,0,0,1,32.963,5.65ZM43.232,46.1l-3.839,2.77a1.612,1.612,0,0,0-.592,1.809l1.546,4.481a1.625,1.625,0,0,1,.082.58,1.7,1.7,0,0,1-2.669,1.229L33.921,54.2a1.636,1.636,0,0,0-.958-.309l-.446.062L32,54.2l-3.839,2.77a1.7,1.7,0,0,1-2.67-1.229,1.651,1.651,0,0,1,.084-.58l1.545-4.481a1.612,1.612,0,0,0-.592-1.809L22.693,46.1a1.737,1.737,0,0,1,.958-3.107H28.4a1.483,1.483,0,0,0,1.55-.939l1.466-4.51a1.633,1.633,0,0,1,3.1,0l1.466,4.51a1.483,1.483,0,0,0,1.55.939h4.745A1.737,1.737,0,0,1,43.232,46.1ZM65.25,55.111l-3.839,2.77a1.612,1.612,0,0,0-.592,1.809l1.546,4.481a1.625,1.625,0,0,1,.082.58,1.7,1.7,0,0,1-2.669,1.229l-3.839-2.77a1.639,1.639,0,0,0-1.916,0l-3.839,2.77a1.7,1.7,0,0,1-2.67-1.229,1.651,1.651,0,0,1,.084-.58l1.545-4.481a1.612,1.612,0,0,0-.592-1.809l-3.839-2.77A1.737,1.737,0,0,1,45.669,52h4.745a1.483,1.483,0,0,0,1.55-.939l1.466-4.51a1.633,1.633,0,0,1,3.1,0L58,51.066a1.483,1.483,0,0,0,1.55.939h4.745A1.737,1.737,0,0,1,65.25,55.111Zm-44.036,0-3.839,2.77a1.612,1.612,0,0,0-.592,1.809l1.546,4.481a1.625,1.625,0,0,1,.082.58,1.7,1.7,0,0,1-2.669,1.229L11.9,63.21a1.639,1.639,0,0,0-1.916,0L6.148,65.98a1.7,1.7,0,0,1-2.67-1.229,1.651,1.651,0,0,1,.084-.58L5.106,59.69a1.612,1.612,0,0,0-.592-1.809L.675,55.111A1.737,1.737,0,0,1,1.633,52H6.378a1.483,1.483,0,0,0,1.55-.939l1.466-4.51a1.633,1.633,0,0,1,3.1,0l1.466,4.51a1.483,1.483,0,0,0,1.55.939h4.745A1.737,1.737,0,0,1,21.214,55.111Z" transform="translate(0 -0.5)" fill="#fff"/>
</svg>
