<svg xmlns="http://www.w3.org/2000/svg" xmlns:xlink="http://www.w3.org/1999/xlink" width="128" height="79.657" viewBox="0 0 128 79.657">
  <defs>
    <clipPath id="clip-path">
      <rect id="Rectangle_242" data-name="Rectangle 242" width="128" height="79.657" fill="none"/>
    </clipPath>
    <clipPath id="clip-path-4">
      <rect id="Rectangle_237" data-name="Rectangle 237" width="16.948" height="6.042" fill="none"/>
    </clipPath>
    <clipPath id="clip-path-5">
      <rect id="Rectangle_238" data-name="Rectangle 238" width="7.834" height="7.836" fill="none"/>
    </clipPath>
  </defs>
  <g id="sports-icon" clip-path="url(#clip-path)">
    <g id="Group_128" data-name="Group 128">
      <g id="Group_127" data-name="Group 127" clip-path="url(#clip-path)">
        <g id="Group_114" data-name="Group 114" opacity="0.97">
          <g id="Group_113" data-name="Group 113">
            <g id="Group_112" data-name="Group 112" clip-path="url(#clip-path)">
              <path id="Path_110" data-name="Path 110" d="M100.673,21.582a27.2,27.2,0,0,0-7.827,1.144A28.8,28.8,0,0,0,82.837,6.453L82.658,6.3l-.121-.121h-.031A28.75,28.75,0,0,0,63.31.034l-.027,0A28.846,28.846,0,0,0,42.168,10.841,26.4,26.4,0,0,0,37.127,8a26.751,26.751,0,0,0-20.062-.343.577.577,0,0,0-.153.065,26.637,26.637,0,0,0-11.1,8.2,27.033,27.033,0,0,0-3.693,6.219.4.4,0,0,0-.04.085,1.439,1.439,0,0,0-.079.235,26.838,26.838,0,0,0-.7,18.366.558.558,0,0,0,.056.155c.005.013.013.025.018.036A26.623,26.623,0,0,0,8.04,51.685,13.553,13.553,0,0,0,5.7,53.264a.671.671,0,0,0-.092.083,13.977,13.977,0,0,0,.034,21.407l.054.052a13.966,13.966,0,0,0,17.833,0l.1-.1c.236-.2.46-.394.69-.623s.523-.529.82-.865c.2.088.4.181.641.278a36.772,36.772,0,0,0,14.472,3.011,37.507,37.507,0,0,0,11.891-1.944.571.571,0,0,0,.171-.063,38.156,38.156,0,0,0,8.2-3.894h.038l.135-.087c.811-.527,1.536-1.033,2.2-1.533A13.991,13.991,0,0,0,86.2,75.727a14.153,14.153,0,0,0,2.054-2.493,27.088,27.088,0,0,0,12.418,3,27.325,27.325,0,1,0,0-54.651m2.874,3.374a23.957,23.957,0,0,1,9.519,3.262c-7.923,4.155-13.16,10.807-13.927,19.685a21.051,21.051,0,0,1-9.625,2.6,27.607,27.607,0,0,1,.85-8.594,28.5,28.5,0,0,0,2.166-5.641,27.155,27.155,0,0,1,11.017-11.316M90.281,63.3a14.088,14.088,0,0,0-7.165-9.97h0a14.274,14.274,0,0,0-1.917-.856c.038-.025.076-.052.112-.079a26.1,26.1,0,0,0,6.574,1.265h0a23.52,23.52,0,0,0,12.918-3.015,18.117,18.117,0,0,1,6.4,4.1A22.7,22.7,0,0,1,90.281,63.3M86.3,50.286q-.983-.138-1.951-.361,1.013-.948,1.937-2-.038,1.172.014,2.363M5.183,23.187c.072-.166.148-.33.224-.495s.155-.325.236-.486L5.6,22.183a23.681,23.681,0,0,1,2.71-4.251v0A23.532,23.532,0,0,1,17.5,10.955l.074.04c.218-.094.439-.182.661-.267s.455-.173.686-.253c.453-.161.912-.305,1.377-.437.258-.072.518-.141.778-.206s.543-.128.816-.184l-.1-.052a23.873,23.873,0,0,1,3.749-.489h0a23.675,23.675,0,0,1,8.463,1.144l-.032.045c.179.058.357.119.534.181s.352.126.525.191q.5.19.978.4c.17.072.338.146.5.224s.332.153.5.235l.027-.038a24.7,24.7,0,0,1,4.28,2.722,23.755,23.755,0,0,1,3.134,3.025c.078.087.152.175.226.262.1.126.211.255.314.383a23.345,23.345,0,0,1,2.262,3.336v0q.211.376.408.762.355.69.662,1.408c.1.236.2.475.294.715a23.48,23.48,0,0,1,1.612,8.574q0,.628-.032,1.249l-4.415,1.789c-.345-.016-.688-.031-1.025-.043-.22-.005-.439-.013-.655-.016q-.631-.016-1.247-.016c-.217,0-.43,0-.643,0s-.426,0-.637.009l.088.137c-.5-.02-.968-.031-1.413-.031q-.85,0-1.7.038A37.564,37.564,0,0,0,26.4,38.4l-.014.005c-.195.076-.388.155-.581.235l-.112.043.005-.009c-.276.112-.549.224-.816.339-.247.106-.489.213-.727.323q-.482.219-.946.449c-.255.125-.5.253-.749.381q-.4.208-.776.419l.063.011a34.9,34.9,0,0,0-4.4,2.9q-.328.255-.643.511l-.054.045a27.118,27.118,0,0,0-4.61,4.935c-.143.2-.271.388-.383.558-.218.327-.381.6-.493.791-.157-.139-.312-.278-.466-.421-.292-.273-.576-.551-.854-.834a23.609,23.609,0,0,1-4.392-6.309c-.117-.249-.233-.5-.341-.755-.2-.451-.379-.912-.545-1.377-.085-.235-.166-.471-.246-.711A23.529,23.529,0,0,1,3.19,32.675c0-.2,0-.4.007-.607A23.578,23.578,0,0,1,4.4,25.14l.022.011c.058-.173.119-.345.182-.516s.125-.341.191-.511q.184-.474.39-.937M58.2,44.047V68.274a34.4,34.4,0,0,1-4.888,2.442V41.576A35.97,35.97,0,0,1,58.2,44.047M14.918,74.774c-.108,0-.215.005-.323.005h-.116A10.179,10.179,0,0,1,11.9,74.44c-.087-.022-.173-.045-.258-.07s-.17-.049-.255-.076l-.087-.027c-.072-.023-.144-.047-.217-.072-.11-.038-.22-.078-.33-.121s-.211-.081-.318-.126a.4.4,0,0,1-.042-.016q-.146-.062-.292-.13t-.32-.152c-.1-.052-.211-.107-.314-.162-.081-.045-.164-.09-.246-.137-.022-.011-.043-.023-.065-.036l0,0c-.159-.092-.314-.19-.469-.291a12.364,12.364,0,0,0,1.2-1.529l1.141.773,1.2-1.738-1.282-.879a14.191,14.191,0,0,0,.93-2.791l1.422.332.493-2.054-1.616-.386c.016-.246.016-.509.016-.755a13.317,13.317,0,0,0-.1-1.686l1.7-.4-.493-2.054-1.65.386a14.6,14.6,0,0,0-.879-2.249l1.459-1-1.2-1.738-1.37.93a14.169,14.169,0,0,0-.982-1.22,10.679,10.679,0,0,1,4.136-1.619c.235-.04.469-.07.708-.094.11-.011.22-.022.33-.029.085-.005.171-.011.258-.013.061,0,.123-.007.186-.007.1,0,.2-.005.3-.005s.2,0,.3.005c.061,0,.125,0,.186.007s.1,0,.15.007.074,0,.11.005c.11.007.222.018.332.029a.1.1,0,0,1,.023,0c.11.011.222.025.332.04s.236.032.354.052c.235.04.466.087.7.141a.023.023,0,0,1,.011,0c.112.027.226.056.338.087s.229.065.343.1.226.072.339.11.208.074.31.112a.284.284,0,0,1,.042.016c.107.042.209.083.314.126.218.092.435.191.648.3s.424.222.632.343c.159.092.314.19.468.291-.1.108-.2.218-.291.33q-.276.32-.531.657l-1.036-.7-1.193,1.738,1.089.737a13.054,13.054,0,0,0-.984,2.406l-1.177-.28L15.911,61.9l1.211.282A12.5,12.5,0,0,0,17,63.994c0,.3.018.579.036.877l-1.125.264.491,2.054.931-.227A13.212,13.212,0,0,0,18.369,69.9l-.913.614,1.2,1.738.789-.543a13.6,13.6,0,0,0,1.058,1.32,10.709,10.709,0,0,1-5.58,1.751M83.974,73.4l-.027.025a11.87,11.87,0,0,1-.816-1.026l1.359-.927-1.232-1.8-1.234.835a12.559,12.559,0,0,1-.779-2.286l1.6-.38-.507-2.123-1.38.326c0-.127-.019-.272-.019-.4,0-.453.037-.906.073-1.359l1.307.308.507-2.122-1.305-.326a10.185,10.185,0,0,1,.707-1.741l1.052.707,1.234-1.8-1.124-.762c.184-.24.375-.469.574-.692l.01.009c.049.047.1.1.146.144A10.734,10.734,0,0,1,87,63.185a10.982,10.982,0,0,1,.285,2.491c0,.251-.011.5-.029.749a10.682,10.682,0,0,1-.406,2.238,11.028,11.028,0,0,1-.433,1.206,10.586,10.586,0,0,1-.937,1.728A11.076,11.076,0,0,1,83.974,73.4M82.1,56.652q-.285.33-.548.679l-1.07-.725-1.232,1.8,1.124.761a13.476,13.476,0,0,0-1.016,2.485l-1.215-.289-.507,2.122,1.251.291a12.923,12.923,0,0,0-.127,1.868c0,.308.019.6.037.906l-1.161.272.507,2.121L79.1,68.7a13.641,13.641,0,0,0,1.07,3.029l-.943.634,1.234,1.8.815-.561a14.217,14.217,0,0,0,.934,1.183A10.7,10.7,0,0,1,77.289,76.4a.081.081,0,0,0-.02,0c-.173.013-.348.022-.523.025-.1,0-.191,0-.287,0h-.034c-.072,0-.144,0-.217,0s-.134,0-.2-.007a10.733,10.733,0,0,1-5.532-1.8,12.99,12.99,0,0,0,.936-1.237l1.178.8,1.234-1.8L72.5,71.477a14.651,14.651,0,0,0,.96-2.882l1.469.343.509-2.121-1.668-.4c.017-.253.017-.526.017-.779a13.741,13.741,0,0,0-.108-1.741l1.76-.418-.509-2.122-1.7.4a15.053,15.053,0,0,0-.908-2.323L73.826,58.4l-1.234-1.8-1.415.96c-.221-.309-.459-.612-.708-.908.276-.185.559-.36.851-.519.17-.09.341-.179.514-.26a10.761,10.761,0,0,1,2.228-.771,10.643,10.643,0,0,1,1.841-.253c.184-.009.37-.014.556-.014.258,0,.514.009.767.027.025,0,.049,0,.074.007.06,0,.119.007.179.014.085.007.17.016.253.027s.17.02.253.032l.251.038q.376.062.747.152c.083.02.164.04.246.061.11.029.218.06.327.092.054.014.107.031.159.049.161.051.321.1.478.162.078.029.157.058.235.088v0c.173.069.345.141.513.218s.341.161.509.247c.266.139.523.292.775.452-.041.047-.084.093-.124.141M61.393,46.262c3.332,2.646,5.746,5.753,6.468,8.347-.117.09-.235.182-.348.276a14.034,14.034,0,0,0-5.018,10.282c-.356.312-.72.617-1.1.917ZM66.951,28.59,81.907,9.841a25.419,25.419,0,0,1,7.558,12.38,28.619,28.619,0,0,0-18.617,9.484ZM76.4,51.65a14.074,14.074,0,0,0-5.735,1.262,18.439,18.439,0,0,0-3.661-5.76A25.752,25.752,0,0,1,71.374,36.2l3.766,3,2.643,2.1,5.941,4.735a26.828,26.828,0,0,1-2.93,2.755,25.521,25.521,0,0,1-3.06,2.119q-.514.306-1.042.585-.144.079-.287.152M89.581,35.043a25.314,25.314,0,0,1-2.238,5.8,25.645,25.645,0,0,1-1.659,2.7l-6.638-5.307L76.5,36.2l-3.15-2.518a25.424,25.424,0,0,1,12.21-7.518,25.708,25.708,0,0,1,4.545-.811q.122.894.181,1.785a25.468,25.468,0,0,1-.7,7.9M64.96,31.07l3.9,3.116A28.72,28.72,0,0,0,64.238,44.48a34.141,34.141,0,0,0-3.581-2.648c-.836-.543-1.755-1.079-2.924-1.7Zm3.82,26.982a9.447,9.447,0,0,1,.582.747l-.761.526,1.232,1.8.654-.453a12.162,12.162,0,0,1,.6,1.6l-.871.2.507,2.121.8-.181c.037.418.073.835.073,1.251v.272l-.852-.2-.509,2.122,1.107.255a12.777,12.777,0,0,1-.671,2.14l-.816-.563-1.232,1.8,1,.69a11.647,11.647,0,0,1-.819,1.072,10.785,10.785,0,0,1-.019-15.186M65.24,3.213A25.8,25.8,0,0,1,79.41,7.848L64.455,26.6l-4.37-3.484a28.7,28.7,0,0,0,5.156-19.9M52.629,26.42a25.067,25.067,0,0,0-1.051-3.392c-.018-.056-.042-.116-.065-.175s-.038-.1-.052-.144l-.011-.027a25.962,25.962,0,0,0-1.968-3.948l6.125,4.883a26.011,26.011,0,0,1-2.978,2.8m.594,3.553a28.733,28.733,0,0,0,4.885-4.361l4.354,3.482-7.694,9.636c-.682-.287-1.338-.543-1.96-.765a25.013,25.013,0,0,0,.469-3.356l0-.04a5.508,5.508,0,0,0,.034-.558,27.73,27.73,0,0,0-.092-4.038M45.707,11.625A25.527,25.527,0,0,1,62.052,3.343,25.483,25.483,0,0,1,57.6,21.118Zm3.977,25.37.061-.025a.257.257,0,0,1-.007.04l-.054-.014m-21.1,27a14.385,14.385,0,0,0-.6-4.067V41.2a34.406,34.406,0,0,1,12.261-2.255q1.14,0,2.282.081a34.217,34.217,0,0,1,6.495,1.1c.366.1.731.2,1.1.31V71.846A34.633,34.633,0,0,1,40.251,73.3a33.491,33.491,0,0,1-13.216-2.764l-.054-.025a13.972,13.972,0,0,0,1.6-6.522M16.236,48.748c.157-.166.32-.332.486-.5v1.924a14.232,14.232,0,0,0-1.608-.15q.52-.642,1.123-1.278M24.8,54.421c-.161-.171-.323-.336-.487-.495l-.016-.014c-.22-.2-.449-.415-.695-.626a.628.628,0,0,0-.13-.1,14.012,14.012,0,0,0-3.56-2.134V45.527a32.932,32.932,0,0,1,4.888-2.96ZM21.232,70.545l1.316-.9-1.193-1.738-1.2.809a12.164,12.164,0,0,1-.755-2.213l1.545-.368-.491-2.056-1.336.316c0-.123-.018-.264-.018-.386,0-.439.036-.877.07-1.316l1.265.3.491-2.054-1.264-.316a9.851,9.851,0,0,1,.684-1.686l1.018.684,1.2-1.738-1.089-.738a10.8,10.8,0,0,1,.7-.838c.128.126.253.256.375.39l.005-.005a10.687,10.687,0,0,1,2.291,3.863,1.623,1.623,0,0,0,.1.3,11.049,11.049,0,0,1,.459,3.139,10.837,10.837,0,0,1-2.868,7.323c0-.005-.009-.009-.013-.014-.123.134-.249.264-.377.39a11.492,11.492,0,0,1-.924-1.144M7.046,71.7a10.682,10.682,0,0,1-1.031-1.164c-.052-.069-.1-.135-.152-.2s-.1-.134-.144-.2-.1-.137-.141-.208-.088-.134-.132-.2-.067-.11-.1-.164-.07-.117-.1-.177a10.782,10.782,0,0,1-.955-2.184c-.069-.226-.132-.457-.188-.688A10.8,10.8,0,0,1,7.02,56.293,9.906,9.906,0,0,1,7.9,57.373l-.737.509L8.358,59.62l.634-.439a11.818,11.818,0,0,1,.579,1.545l-.843.193.491,2.054.773-.175c.036.4.07.809.07,1.211v.264l-.825-.193-.493,2.054,1.072.247a12.366,12.366,0,0,1-.65,2.072l-.791-.545L7.183,69.648l.966.668a11.309,11.309,0,0,1-1.1,1.385M97.8,24.956a30.519,30.519,0,0,0-4.3,4.175,28.126,28.126,0,0,0-.148-3.21,23.88,23.88,0,0,1,4.446-.966m2.872,48.075a23.934,23.934,0,0,1-11-2.663,13.878,13.878,0,0,0,.782-3.868,25.8,25.8,0,0,0,18.9-9.315,30.323,30.323,0,0,1,5.132,11.492,24,24,0,0,1-13.809,4.354m16.542-6.583c-2.22-8.074-7.024-15.553-14.851-18.633a19.892,19.892,0,0,1,1.845-6.654,24.194,24.194,0,0,1,19.219,15.752,24.163,24.163,0,0,1-6.213,9.535m-11.25-28.233a25.444,25.444,0,0,1,10.071-7.892,24.1,24.1,0,0,1,8.587,21.472,27.5,27.5,0,0,0-18.658-13.58" transform="translate(0 0)" fill="#111342"/>
            </g>
          </g>
        </g>
        <g id="Group_117" data-name="Group 117" transform="translate(30.435 53.069)" opacity="0.97">
          <g id="Group_116" data-name="Group 116">
            <g id="Group_115" data-name="Group 115" clip-path="url(#clip-path-4)">
              <path id="Path_111" data-name="Path 111" d="M170.181,300.03h2.107v-1.914h1.879v1.914h2.108v-1.914h1.879v1.914h2.108v-1.914h1.423v1.914h2.107v-1.914h1.756v-2.107h-1.756v-2.02h-2.107v2.02h-1.423v-2.02h-2.108v2.02h-1.879v-2.02h-2.108v2.02h-1.879v-2.02h-2.107v2.02H168.6v2.107h1.581Z" transform="translate(-168.6 -293.989)" fill="#111342"/>
            </g>
          </g>
        </g>
        <g id="Group_120" data-name="Group 120" transform="translate(14.521 16.469)" opacity="0.97">
          <g id="Group_119" data-name="Group 119">
            <g id="Group_118" data-name="Group 118" clip-path="url(#clip-path-5)">
              <path id="Path_112" data-name="Path 112" d="M84.36,99.071a3.918,3.918,0,1,0-3.917-3.919,3.919,3.919,0,0,0,3.917,3.919m0-5.648a1.73,1.73,0,1,1-1.731,1.729,1.729,1.729,0,0,1,1.731-1.729" transform="translate(-80.443 -91.235)" fill="#111342"/>
            </g>
          </g>
        </g>
        <g id="Group_123" data-name="Group 123" transform="translate(21.966 23.662)" opacity="0.97">
          <g id="Group_122" data-name="Group 122">
            <g id="Group_121" data-name="Group 121" clip-path="url(#clip-path-5)">
              <path id="Path_113" data-name="Path 113" d="M125.6,138.915A3.918,3.918,0,1,0,121.683,135a3.919,3.919,0,0,0,3.917,3.919m0-5.648a1.73,1.73,0,1,1-1.731,1.73,1.73,1.73,0,0,1,1.731-1.73" transform="translate(-121.683 -131.079)" fill="#111342"/>
            </g>
          </g>
        </g>
        <g id="Group_126" data-name="Group 126" transform="translate(26.982 15.272)" opacity="0.97">
          <g id="Group_125" data-name="Group 125">
            <g id="Group_124" data-name="Group 124" clip-path="url(#clip-path-5)">
              <path id="Path_114" data-name="Path 114" d="M153.39,92.441a3.918,3.918,0,1,0-3.917-3.919,3.919,3.919,0,0,0,3.917,3.919m0-5.648a1.73,1.73,0,1,1-1.731,1.729,1.73,1.73,0,0,1,1.731-1.729" transform="translate(-149.473 -84.605)" fill="#111342"/>
            </g>
          </g>
        </g>
      </g>
    </g>
  </g>
</svg>
