<svg id="podium" xmlns="http://www.w3.org/2000/svg" width="27.298" height="28.134" viewBox="0 0 27.298 28.134">
  <g id="Group_6104" data-name="Group 6104" transform="translate(0)">
    <g id="Group_6100" data-name="Group 6100" transform="translate(7.434 13.852)">
      <path id="Path_13574" data-name="Path 13574" d="M154.23,266.381H144a1.1,1.1,0,0,1-1.1-1.1v-9.764a3.421,3.421,0,0,1,3.418-3.418h5.588a3.421,3.421,0,0,1,3.418,3.418v9.764A1.094,1.094,0,0,1,154.23,266.381Zm-9.132-2.2h8.028v-8.665a1.224,1.224,0,0,0-1.22-1.22h-5.588a1.224,1.224,0,0,0-1.22,1.22Z" transform="translate(-142.9 -252.1)" fill="#ec7223"/>
    </g>
    <g id="Group_6101" data-name="Group 6101" transform="translate(0 18.397)">
      <path id="Path_13575" data-name="Path 13575" d="M16.133,344.537H8.7a1.1,1.1,0,0,1-1.1-1.1v-5.22a3.421,3.421,0,0,1,3.418-3.418h5.116a1.1,1.1,0,0,1,1.1,1.1v7.539A1.1,1.1,0,0,1,16.133,344.537Zm-6.336-2.2h5.237V337H11.018a1.224,1.224,0,0,0-1.22,1.22Z" transform="translate(-7.6 -334.8)" fill="#ec7223"/>
    </g>
    <g id="Group_6102" data-name="Group 6102" transform="translate(7.434)">
      <path id="Path_13576" data-name="Path 13576" d="M154.23,11.44H144a1.1,1.1,0,0,1-1.1-1.1V3.33a1.107,1.107,0,0,1,.544-.951,1.1,1.1,0,0,1,1.093-.005l1.731.978L148.2.489a1.1,1.1,0,0,1,1.824-.005l1.934,2.863,1.731-.978a1.1,1.1,0,0,1,1.637.956v7.011A1.1,1.1,0,0,1,154.23,11.44Zm-9.132-2.2h8.028V5.209l-.973.549a1.1,1.1,0,0,1-1.451-.341l-1.588-2.352-1.588,2.357a1.1,1.1,0,0,1-1.451.341l-.973-.549V9.242Z" transform="translate(-142.9)" fill="#ec7223"/>
    </g>
    <g id="Group_6103" data-name="Group 6103" transform="translate(12.55 19.138)">
      <path id="Path_13577" data-name="Path 13577" d="M237.1,352.46a1.1,1.1,0,0,1-1.1-1.1V349.4a1.1,1.1,0,1,1,2.2,0v1.962A1.1,1.1,0,0,1,237.1,352.46Z" transform="translate(-236 -348.3)" fill="#ec7223"/>
    </g>
  </g>
  <g id="Group_6105" data-name="Group 6105" transform="translate(17.666 20.067)">
    <path id="Path_13578" data-name="Path 13578" d="M337.633,373.266a1.1,1.1,0,0,1-1.1-1.1v-3.55a1.224,1.224,0,0,0-1.22-1.22H331.3v3.671h.841a1.1,1.1,0,1,1,0,2.2H330.2a1.1,1.1,0,0,1-1.1-1.1V366.3a1.1,1.1,0,0,1,1.1-1.1h5.116a3.421,3.421,0,0,1,3.418,3.418v3.55A1.1,1.1,0,0,1,337.633,373.266Z" transform="translate(-329.1 -365.2)" fill="#ec7223"/>
  </g>
</svg>
