<svg xmlns="http://www.w3.org/2000/svg" xmlns:xlink="http://www.w3.org/1999/xlink" width="156.879" height="97.629" viewBox="0 0 156.879 97.629">
  <defs>
    <clipPath id="clip-path">
      <rect id="Rectangle_242" data-name="Rectangle 242" width="156.879" height="97.629" fill="#fff"/>
    </clipPath>
    <clipPath id="clip-path-4">
      <rect id="Rectangle_237" data-name="Rectangle 237" width="20.772" height="7.405" fill="#fff"/>
    </clipPath>
    <clipPath id="clip-path-5">
      <rect id="Rectangle_238" data-name="Rectangle 238" width="9.602" height="9.604" fill="#fff"/>
    </clipPath>
  </defs>
  <g id="sports-hover-icon" clip-path="url(#clip-path)">
    <g id="Group_128" data-name="Group 128">
      <g id="Group_127" data-name="Group 127" clip-path="url(#clip-path)">
        <g id="Group_114" data-name="Group 114" opacity="0.97">
          <g id="Group_113" data-name="Group 113">
            <g id="Group_112" data-name="Group 112" clip-path="url(#clip-path)">
              <path id="Path_110" data-name="Path 110" d="M123.387,26.451a33.333,33.333,0,0,0-9.593,1.4A35.292,35.292,0,0,0,101.526,7.909l-.219-.186-.148-.148h-.038A35.237,35.237,0,0,0,77.594.042l-.033,0A35.354,35.354,0,0,0,51.682,13.287,32.357,32.357,0,0,0,45.5,9.8a32.786,32.786,0,0,0-24.589-.42.707.707,0,0,0-.188.08A32.647,32.647,0,0,0,7.118,19.517a33.132,33.132,0,0,0-4.527,7.622.485.485,0,0,0-.049.1,1.764,1.764,0,0,0-.1.288A32.894,32.894,0,0,0,1.589,50.04a.683.683,0,0,0,.069.19c.007.015.015.031.022.044A32.63,32.63,0,0,0,9.854,63.345a16.61,16.61,0,0,0-2.872,1.936.823.823,0,0,0-.113.1A17.131,17.131,0,0,0,6.912,91.62l.066.064a17.117,17.117,0,0,0,21.856,0l.126-.117c.29-.248.564-.482.845-.763s.642-.648,1-1.06c.241.108.493.221.785.341a45.069,45.069,0,0,0,17.737,3.69,45.969,45.969,0,0,0,14.573-2.383.7.7,0,0,0,.21-.077,46.764,46.764,0,0,0,10.055-4.772h.046l.166-.106c.993-.646,1.883-1.266,2.695-1.878a17.147,17.147,0,0,0,28.571,8.255,17.345,17.345,0,0,0,2.518-3.055,33.2,33.2,0,0,0,15.219,3.675,33.49,33.49,0,1,0,0-66.981m3.522,4.135a29.362,29.362,0,0,1,11.666,4c-9.71,5.093-16.129,13.246-17.069,24.126a25.8,25.8,0,0,1-11.8,3.193,33.835,33.835,0,0,1,1.042-10.533,34.925,34.925,0,0,0,2.655-6.914,33.281,33.281,0,0,1,13.5-13.87m-16.259,47a17.266,17.266,0,0,0-8.781-12.219h0a17.494,17.494,0,0,0-2.35-1.049c.046-.031.093-.064.137-.1a31.988,31.988,0,0,0,8.058,1.551h0c4.894.3,9.695-.529,15.832-3.695a22.2,22.2,0,0,1,7.843,5.022A27.826,27.826,0,0,1,110.65,77.582m-4.883-15.952q-1.2-.169-2.392-.442,1.241-1.162,2.374-2.454-.046,1.437.018,2.9M6.352,28.418c.088-.2.181-.4.274-.606s.19-.4.29-.6l-.055-.029a29.024,29.024,0,0,1,3.321-5.21v0A28.841,28.841,0,0,1,21.45,13.427l.091.049c.268-.115.538-.223.81-.327s.558-.212.841-.31c.555-.2,1.117-.374,1.688-.535.316-.088.635-.173.954-.252s.666-.157,1-.226l-.122-.064a29.259,29.259,0,0,1,4.6-.6h0a29.016,29.016,0,0,1,10.372,1.4l-.04.055c.219.071.438.146.655.221s.431.155.644.235q.607.232,1.2.487c.208.088.414.179.617.274s.407.188.608.288l.033-.046a30.277,30.277,0,0,1,5.246,3.336,29.114,29.114,0,0,1,3.841,3.708c.1.106.186.215.277.321.128.155.259.312.385.469A28.613,28.613,0,0,1,57.917,26v0q.259.461.5.934.435.846.812,1.726c.126.29.246.582.361.876a28.777,28.777,0,0,1,1.976,10.509q0,.77-.04,1.531L56.114,43.77c-.423-.02-.843-.038-1.257-.053-.27-.007-.538-.015-.8-.02q-.773-.02-1.529-.02c-.265,0-.527,0-.788,0s-.522,0-.781.011l.108.168c-.613-.024-1.186-.038-1.732-.038q-1.042,0-2.08.046a46.038,46.038,0,0,0-14.892,3.193l-.018.007c-.239.093-.476.19-.712.288l-.137.053L31.5,47.4c-.339.137-.673.274-1,.416-.3.131-.6.261-.892.4q-.591.269-1.159.551c-.312.153-.617.31-.918.467q-.488.256-.951.513l.077.013A42.769,42.769,0,0,0,21.268,53.3q-.4.312-.788.626l-.066.055a33.236,33.236,0,0,0-5.651,6.049c-.175.246-.332.476-.469.684-.268.4-.467.73-.6.969-.192-.17-.383-.341-.571-.515-.358-.334-.706-.675-1.046-1.022a28.936,28.936,0,0,1-5.383-7.732c-.144-.305-.285-.613-.418-.925-.241-.553-.465-1.117-.668-1.688-.1-.288-.2-.577-.3-.872A28.837,28.837,0,0,1,3.91,40.046c0-.248,0-.5.009-.743A28.9,28.9,0,0,1,5.39,30.812l.027.013c.071-.212.146-.423.223-.633s.153-.418.235-.626q.226-.581.478-1.148M71.335,53.985V83.678a42.16,42.16,0,0,1-5.991,2.993V50.956a44.085,44.085,0,0,1,5.991,3.029M18.284,91.644c-.133,0-.263.007-.4.007h-.142a12.476,12.476,0,0,1-3.164-.416c-.106-.027-.212-.055-.316-.086s-.208-.06-.312-.093l-.106-.033c-.088-.029-.177-.058-.265-.088-.135-.046-.27-.1-.4-.148s-.259-.1-.389-.155a.485.485,0,0,1-.051-.02q-.179-.076-.358-.159-.2-.09-.392-.186c-.128-.064-.259-.131-.385-.2-.1-.055-.2-.111-.3-.168-.027-.013-.053-.029-.08-.044l0,0c-.195-.113-.385-.232-.575-.356a15.154,15.154,0,0,0,1.469-1.874l1.4.947,1.465-2.131L13.41,85.361a17.393,17.393,0,0,0,1.139-3.42l1.743.407.6-2.518-1.98-.473c.02-.3.02-.624.02-.925a16.322,16.322,0,0,0-.128-2.066l2.089-.5-.6-2.518-2.022.473a17.893,17.893,0,0,0-1.077-2.757l1.788-1.226-1.465-2.131-1.679,1.139a17.367,17.367,0,0,0-1.2-1.5A13.089,13.089,0,0,1,15.7,65.372c.288-.049.575-.086.867-.115.135-.013.27-.027.4-.035.1-.007.21-.013.316-.015.075,0,.15-.009.228-.009.122,0,.246-.007.369-.007s.248,0,.369.007c.075,0,.153,0,.228.009s.122,0,.184.009c.044,0,.091,0,.135.007.135.009.272.022.407.035a.117.117,0,0,1,.029,0c.135.013.272.031.407.049s.29.04.434.064c.288.049.571.106.854.173a.028.028,0,0,1,.013,0c.137.033.277.069.414.106s.281.08.42.122.277.089.416.135.254.091.381.137a.347.347,0,0,1,.051.02c.131.051.257.1.385.155.268.113.533.235.794.365s.52.272.774.42c.195.113.385.232.573.356-.122.133-.241.268-.356.4q-.338.392-.65.805l-1.27-.861-1.462,2.131,1.334.9A16,16,0,0,0,21.545,73.7L20.1,73.352l-.6,2.518,1.485.345a15.313,15.313,0,0,0-.15,2.217c0,.365.022.71.044,1.075L19.5,79.83l.6,2.518,1.142-.279a16.193,16.193,0,0,0,1.27,3.6l-1.119.752,1.465,2.131.967-.666a16.663,16.663,0,0,0,1.3,1.617,13.125,13.125,0,0,1-6.839,2.146m84.636-1.679-.033.031a14.546,14.546,0,0,1-1-1.258l1.666-1.136-1.51-2.2-1.513,1.024a15.394,15.394,0,0,1-.955-2.8l1.956-.466-.621-2.6-1.691.4c0-.156-.023-.334-.023-.489,0-.555.046-1.11.089-1.666l1.6.377.621-2.6-1.6-.4a12.483,12.483,0,0,1,.866-2.134l1.289.866,1.513-2.2-1.378-.934c.225-.295.459-.575.7-.848l.013.012c.06.058.122.117.179.177a13.155,13.155,0,0,1,3.538,6.325,13.459,13.459,0,0,1,.35,3.053c0,.308-.013.615-.035.918a13.092,13.092,0,0,1-.5,2.743,13.518,13.518,0,0,1-.531,1.478,12.973,12.973,0,0,1-1.148,2.117,13.575,13.575,0,0,1-1.847,2.215m-2.3-20.532q-.349.4-.672.832l-1.312-.889-1.51,2.2,1.378.932a16.517,16.517,0,0,0-1.245,3.046l-1.49-.354-.621,2.6,1.533.356a15.838,15.838,0,0,0-.155,2.289c0,.377.023.734.046,1.111l-1.423.334.621,2.6,1.179-.288a16.719,16.719,0,0,0,1.312,3.713l-1.156.777,1.513,2.2,1-.688a17.425,17.425,0,0,0,1.145,1.45,13.108,13.108,0,0,1-6.035,1.98.1.1,0,0,0-.024,0c-.212.015-.427.027-.642.031-.117,0-.235,0-.352,0h-.042c-.088,0-.177,0-.265,0s-.164,0-.243-.009a13.155,13.155,0,0,1-6.78-2.206,15.92,15.92,0,0,0,1.148-1.516l1.444.978,1.512-2.2L88.86,87.6a17.957,17.957,0,0,0,1.177-3.532l1.8.42.624-2.6L90.416,81.4c.021-.311.021-.644.021-.955a16.84,16.84,0,0,0-.133-2.134l2.157-.512-.624-2.6-2.089.489a18.449,18.449,0,0,0-1.113-2.847l1.846-1.266-1.512-2.2-1.734,1.177c-.271-.379-.562-.751-.868-1.113.338-.227.685-.441,1.043-.636.208-.111.418-.219.631-.319a13.189,13.189,0,0,1,2.73-.945,13.044,13.044,0,0,1,2.257-.31c.226-.011.454-.018.681-.018.316,0,.631.011.94.033.031,0,.06,0,.091.009.073,0,.146.009.219.018.1.009.208.02.31.033s.208.024.31.04l.308.046q.461.076.916.186c.1.024.2.049.3.075.135.035.268.073.4.113.066.018.131.038.195.06.2.062.394.128.586.2.1.035.192.071.288.108v0c.212.084.423.173.628.268s.418.2.624.3c.326.171.641.358.95.554-.05.058-.1.114-.152.173M75.245,56.7c4.084,3.243,7.042,7.051,7.927,10.23-.144.111-.288.223-.427.339a17.2,17.2,0,0,0-6.151,12.6c-.436.383-.883.757-1.35,1.124Zm6.812-21.66,18.33-22.978a31.153,31.153,0,0,1,9.263,15.173A35.076,35.076,0,0,0,86.833,38.858ZM93.643,63.3a17.25,17.25,0,0,0-7.029,1.546,22.6,22.6,0,0,0-4.487-7.06,31.563,31.563,0,0,1,5.35-13.425l4.615,3.679,3.239,2.58,7.281,5.8A32.881,32.881,0,0,1,99.021,59.8a31.278,31.278,0,0,1-3.75,2.6q-.631.375-1.277.717-.176.1-.352.186m16.148-20.354a31.026,31.026,0,0,1-2.743,7.109,31.433,31.433,0,0,1-2.033,3.312l-8.135-6.5-3.122-2.5L89.9,41.283a31.16,31.16,0,0,1,14.965-9.215,31.508,31.508,0,0,1,5.571-.993q.149,1.1.221,2.188a31.213,31.213,0,0,1-.863,9.686M79.616,38.08,84.393,41.9a35.2,35.2,0,0,0-5.662,12.617,41.843,41.843,0,0,0-4.389-3.246c-1.024-.666-2.15-1.323-3.584-2.089ZM84.3,71.15a11.58,11.58,0,0,1,.714.916l-.932.644,1.51,2.2.8-.555a14.907,14.907,0,0,1,.733,1.956l-1.067.244.622,2.6.978-.221c.046.512.089,1.023.089,1.533V80.8L86.7,80.556l-.624,2.6,1.357.313a15.661,15.661,0,0,1-.823,2.623l-1-.69L84.1,87.6l1.222.846a14.275,14.275,0,0,1-1,1.313A13.218,13.218,0,0,1,84.3,71.15M79.959,3.938A31.619,31.619,0,0,1,97.327,9.619L79,32.6l-5.356-4.27a35.18,35.18,0,0,0,6.319-24.39M64.5,32.38a30.722,30.722,0,0,0-1.288-4.157c-.022-.069-.051-.142-.08-.215s-.046-.122-.064-.177l-.013-.033a31.819,31.819,0,0,0-2.412-4.839l7.507,5.985A31.879,31.879,0,0,1,64.5,32.38m.728,4.354a35.216,35.216,0,0,0,5.987-5.345l5.336,4.268-9.429,11.81c-.836-.352-1.639-.666-2.4-.938a30.655,30.655,0,0,0,.575-4.113l0-.049a6.751,6.751,0,0,0,.042-.684,33.986,33.986,0,0,0-.113-4.949M56.019,14.247A31.287,31.287,0,0,1,76.052,4.1,31.232,31.232,0,0,1,70.6,25.883Zm4.874,31.093.075-.031a.315.315,0,0,1-.009.049l-.066-.018M35.036,78.432a17.63,17.63,0,0,0-.73-4.985V50.5a42.169,42.169,0,0,1,15.027-2.763q1.4,0,2.8.1a41.937,41.937,0,0,1,7.96,1.345c.449.117.9.246,1.343.381v38.5a42.447,42.447,0,0,1-12.1,1.788,41.047,41.047,0,0,1-16.2-3.387l-.066-.031a17.125,17.125,0,0,0,1.967-7.993M19.9,59.746c.192-.2.392-.407.6-.608V61.5a17.442,17.442,0,0,0-1.971-.184q.637-.787,1.376-1.566m10.5,6.954c-.2-.21-.4-.412-.6-.606l-.02-.018c-.27-.25-.551-.509-.852-.768a.769.769,0,0,0-.159-.122A17.173,17.173,0,0,0,24.4,62.571V55.8a40.363,40.363,0,0,1,5.991-3.628ZM26.023,86.461l1.613-1.1-1.462-2.131-1.465.991a14.909,14.909,0,0,1-.925-2.712l1.894-.451-.6-2.52-1.637.387c0-.15-.022-.323-.022-.473,0-.538.044-1.075.086-1.613l1.551.365.6-2.518L24.107,74.3a12.074,12.074,0,0,1,.839-2.066l1.248.839,1.465-2.131-1.334-.9a13.231,13.231,0,0,1,.863-1.027c.157.155.31.314.46.478l.007-.007a13.1,13.1,0,0,1,2.808,4.735,1.989,1.989,0,0,0,.126.365,13.542,13.542,0,0,1,.562,3.847A13.282,13.282,0,0,1,27.633,87.4c0-.007-.011-.011-.015-.018-.15.164-.305.323-.462.478a14.084,14.084,0,0,1-1.133-1.4M8.635,87.877A13.092,13.092,0,0,1,7.372,86.45c-.064-.084-.126-.166-.186-.25s-.119-.164-.177-.248-.117-.168-.173-.254-.108-.164-.162-.248c-.04-.066-.082-.135-.124-.2s-.086-.144-.128-.217a13.214,13.214,0,0,1-1.17-2.677c-.084-.277-.162-.56-.23-.843A13.239,13.239,0,0,1,8.6,68.994a12.141,12.141,0,0,1,1.08,1.323l-.9.624,1.462,2.131.777-.538a14.484,14.484,0,0,1,.71,1.894l-1.033.237.6,2.518.947-.215c.044.5.086.991.086,1.485v.323l-1.011-.237-.6,2.518,1.314.3a15.156,15.156,0,0,1-.8,2.54l-.969-.668L8.8,85.361l1.184.819a13.86,13.86,0,0,1-1.352,1.7M119.867,30.586A37.4,37.4,0,0,0,114.6,35.7a34.471,34.471,0,0,0-.181-3.934,29.268,29.268,0,0,1,5.449-1.184m3.52,58.921A29.334,29.334,0,0,1,109.9,86.244a17.009,17.009,0,0,0,.958-4.741,31.622,31.622,0,0,0,23.162-11.416,37.165,37.165,0,0,1,6.29,14.084,29.41,29.41,0,0,1-16.925,5.336m20.275-8.069c-2.721-9.9-8.609-19.062-18.2-22.837a24.38,24.38,0,0,1,2.261-8.155,29.653,29.653,0,0,1,23.556,19.306,29.614,29.614,0,0,1-7.615,11.686m-13.788-34.6a31.185,31.185,0,0,1,12.343-9.673A29.536,29.536,0,0,1,152.741,63.48a33.7,33.7,0,0,0-22.868-16.644" transform="translate(0 0)" fill="#fff"/>
            </g>
          </g>
        </g>
        <g id="Group_117" data-name="Group 117" transform="translate(37.301 65.042)" opacity="0.97">
          <g id="Group_116" data-name="Group 116">
            <g id="Group_115" data-name="Group 115" clip-path="url(#clip-path-4)">
              <path id="Path_111" data-name="Path 111" d="M170.538,301.393h2.583v-2.346h2.3v2.346h2.583v-2.346h2.3v2.346h2.583v-2.346h1.744v2.346h2.583v-2.346h2.152v-2.583h-2.152v-2.475h-2.583v2.475h-1.744v-2.475H180.31v2.475h-2.3v-2.475h-2.583v2.475h-2.3v-2.475h-2.583v2.475H168.6v2.583h1.937Z" transform="translate(-168.6 -293.989)" fill="#fff"/>
            </g>
          </g>
        </g>
        <g id="Group_120" data-name="Group 120" transform="translate(17.797 20.185)" opacity="0.97">
          <g id="Group_119" data-name="Group 119">
            <g id="Group_118" data-name="Group 118" clip-path="url(#clip-path-5)">
              <path id="Path_112" data-name="Path 112" d="M85.244,100.839a4.8,4.8,0,1,0-4.8-4.8,4.8,4.8,0,0,0,4.8,4.8m0-6.923a2.121,2.121,0,1,1-2.122,2.119,2.12,2.12,0,0,1,2.122-2.119" transform="translate(-80.443 -91.235)" fill="#fff"/>
            </g>
          </g>
        </g>
        <g id="Group_123" data-name="Group 123" transform="translate(26.922 29)" opacity="0.97">
          <g id="Group_122" data-name="Group 122">
            <g id="Group_121" data-name="Group 121" clip-path="url(#clip-path-5)">
              <path id="Path_113" data-name="Path 113" d="M126.484,140.683a4.8,4.8,0,1,0-4.8-4.8,4.8,4.8,0,0,0,4.8,4.8m0-6.923a2.121,2.121,0,1,1-2.122,2.12,2.12,2.12,0,0,1,2.122-2.12" transform="translate(-121.683 -131.079)" fill="#fff"/>
            </g>
          </g>
        </g>
        <g id="Group_126" data-name="Group 126" transform="translate(33.07 18.718)" opacity="0.97">
          <g id="Group_125" data-name="Group 125">
            <g id="Group_124" data-name="Group 124" clip-path="url(#clip-path-5)">
              <path id="Path_114" data-name="Path 114" d="M154.274,94.209a4.8,4.8,0,1,0-4.8-4.8,4.8,4.8,0,0,0,4.8,4.8m0-6.923a2.121,2.121,0,1,1-2.122,2.12,2.12,2.12,0,0,1,2.122-2.12" transform="translate(-149.473 -84.605)" fill="#fff"/>
            </g>
          </g>
        </g>
      </g>
    </g>
  </g>
</svg>
