<svg id="sports-overlay-btn-icon3" xmlns="http://www.w3.org/2000/svg" width="19.158" height="27.703" viewBox="0 0 19.158 27.703">
  <g id="g1933" transform="translate(5.357 8.065)">
    <g id="path1935" transform="translate(0 0)">
      <path id="Path_13579" data-name="Path 13579" d="M12.814.6A2.113,2.113,0,0,1,11.759.313,2.09,2.09,0,0,1,10.7-1.525V-6.914a2.108,2.108,0,0,1,1.059-1.838,2.086,2.086,0,0,1,2.114,0L18.52-6.053a2.093,2.093,0,0,1,1.055,1.834A2.1,2.1,0,0,1,18.52-2.385L13.873.309A2.07,2.07,0,0,1,12.814.6Zm.053-7.426v5.223l4.5-2.613Z" transform="translate(-10.7 9.038)" fill="#ec7223"/>
    </g>
  </g>
  <g id="g1937" transform="translate(0 0)">
    <g id="path1939" transform="translate(0)">
      <path id="Path_13580" data-name="Path 13580" d="M-292.872-52.6h-10.5a4.337,4.337,0,0,1-4.33-4.33V-75.97a4.337,4.337,0,0,1,4.33-4.33h10.5a4.337,4.337,0,0,1,4.33,4.33v13.643a1.083,1.083,0,0,1-1.083,1.083,1.084,1.084,0,0,1-1.083-1.088V-75.97a2.168,2.168,0,0,0-2.163-2.167h-10.5a2.165,2.165,0,0,0-2.163,2.163V-56.93a2.165,2.165,0,0,0,2.163,2.163h10.5a2.165,2.165,0,0,0,2.163-2.163,1.083,1.083,0,0,1,1.083-1.083,1.081,1.081,0,0,1,1.083,1.083A4.34,4.34,0,0,1-292.872-52.6Z" transform="translate(307.7 80.3)" fill="#ec7223"/>
    </g>
  </g>
  <g id="g1941" transform="translate(8.493 21.701)">
    <g id="path1943" transform="translate(0 0)">
      <path id="Path_13581" data-name="Path 13581" d="M59.683,465.767h0a1.083,1.083,0,1,1,1.083-1.083,1.083,1.083,0,0,1-1.083,1.083" transform="translate(-58.6 -463.6)" fill="#ec7223"/>
    </g>
  </g>
</svg>
