<svg id="team-name-tig" xmlns="http://www.w3.org/2000/svg" xmlns:xlink="http://www.w3.org/1999/xlink" width="119.468" height="62.326" viewBox="0 0 119.468 62.326">
  <defs>
    <clipPath id="clip-path">
      <rect id="Rectangle_4450" data-name="Rectangle 4450" width="119.468" height="62.326" fill="none"/>
    </clipPath>
  </defs>
  <path id="Path_13467" data-name="Path 13467" d="M0,.042V12.414H12.537v27.45h13.09V12.414H38.149V.042Z" transform="translate(0 0.583)"/>
  <rect id="Rectangle_4448" data-name="Rectangle 4448" width="13" height="39.823" transform="translate(51.777 0.628)"/>
  <g id="Group_5902" data-name="Group 5902" transform="translate(0 0)">
    <g id="Group_5901" data-name="Group 5901" clip-path="url(#clip-path)">
      <path id="Path_13468" data-name="Path 13468" d="M45.96,10.774,44.346,8.637A21.625,21.625,0,0,0,26.7,0C14.685,0,5.271,9.025,5.271,20.546c0,10.1,8.039,20.531,21.488,20.531,11.177,0,17.483-7.636,18.17-9.04L45.153,15.7H36.247ZM33.139,26.733v.134a11.163,11.163,0,0,1-6.44,1.778,8.2,8.2,0,0,1-8.368-8.2c0-4.677,3.407-7.95,8.263-7.95,3.183,0,5.424.852,6.829,2.63l.448.583H22.38V26.733Z" transform="translate(73.492 0)"/>
      <path id="Path_13469" data-name="Path 13469" d="M10.936,7.64H7.8A1.929,1.929,0,0,0,5.676,6.1c-.956,0-2.107.418-2.107,1.18,0,.628.867.882,2.72,1.36,2.062.538,4.976,1.24,4.976,4.124,0,2.51-2.2,4.079-5.26,4.079C1.9,16.845.177,14.066.177,12.018H3.315A2.59,2.59,0,0,0,6.169,14.11c1.4,0,1.928-.613,1.928-1.166,0-.822-1.106-1.121-2.316-1.4C3.823,11.077.371,10.345.371,7.431c0-2.391,2.346-4.169,5.335-4.169,3.422,0,5.23,2.331,5.23,4.378" transform="translate(2.468 45.481)"/>
      <path id="Path_13470" data-name="Path 13470" d="M14.55,10.047A6.769,6.769,0,1,1,7.766,3.263a6.789,6.789,0,0,1,6.784,6.784m-10.639,0a3.848,3.848,0,1,0,3.855-3.84,3.836,3.836,0,0,0-3.855,3.84" transform="translate(14.11 45.495)"/>
      <path id="Path_13471" data-name="Path 13471" d="M5.219,13.469h6.874V16.4H2.051V3.278H5.219Z" transform="translate(28.601 45.7)"/>
      <path id="Path_13472" data-name="Path 13472" d="M15.432,9.659c0,4.333-2.735,6.963-6.4,6.963-3.721,0-6.261-2.63-6.261-6.963V3.278H5.943V9.659c0,2.525,1.076,4.035,3.093,4.035,1.958,0,3.2-1.509,3.2-4.035V3.278h3.2Z" transform="translate(38.691 45.704)"/>
      <path id="Path_13473" data-name="Path 13473" d="M16.209,6.207H11.562V16.383h-3.2V6.207H3.717V3.278H16.209Z" transform="translate(51.827 45.709)"/>
      <rect id="Rectangle_4449" data-name="Rectangle 4449" width="3.168" height="13.12" transform="translate(70.112 48.982)"/>
      <path id="Path_13474" data-name="Path 13474" d="M18.579,10.047A6.769,6.769,0,1,1,11.8,3.263a6.8,6.8,0,0,1,6.784,6.784m-10.654,0a3.855,3.855,0,1,0,3.87-3.84,3.849,3.849,0,0,0-3.87,3.84" transform="translate(70.286 45.495)"/>
      <path id="Path_13475" data-name="Path 13475" d="M19.068,16.4H15.885L9.25,8.373V16.4H6.068V3.278H9.25l6.635,8.009V3.278h3.183Z" transform="translate(84.598 45.699)"/>
      <path id="Path_13476" data-name="Path 13476" d="M17.835,7.64H14.7A1.929,1.929,0,0,0,12.575,6.1c-.956,0-2.107.418-2.107,1.18,0,.628.867.882,2.72,1.36,2.062.538,4.976,1.24,4.976,4.124,0,2.51-2.2,4.079-5.26,4.079-4.109,0-5.828-2.779-5.828-4.827h3.138a2.59,2.59,0,0,0,2.854,2.092c1.4,0,1.928-.613,1.928-1.166,0-.822-1.106-1.121-2.316-1.4-1.958-.463-5.409-1.2-5.409-4.109,0-2.391,2.346-4.169,5.335-4.169,3.422,0,5.23,2.331,5.23,4.378" transform="translate(98.659 45.481)"/>
    </g>
  </g>
</svg>
