<svg id="team-name-paradym" xmlns="http://www.w3.org/2000/svg" xmlns:xlink="http://www.w3.org/1999/xlink" width="273.171" height="79.374" viewBox="0 0 273.171 79.374">
  <defs>
    <clipPath id="clip-path">
      <rect id="Rectangle_4452" data-name="Rectangle 4452" width="273.171" height="79.374" fill="none"/>
    </clipPath>
  </defs>
  <path id="Path_13486" data-name="Path 13486" d="M35.072,0,0,20.249v40.5L33.5,79.374V23.454L21.94,34.172V62.433l-2.773-1.511V36.414l-7.142,6.339V57.032L9.148,55.465V25.53L35.072,10.563Z" transform="translate(0)" fill="#066665"/>
  <path id="Path_13487" data-name="Path 13487" d="M111.678,0V10.563L137.6,25.53V55.465l-2.877,1.567V42.753l-7.142-6.339V60.922l-2.773,1.511V34.172L113.25,23.454V79.374l33.5-18.628v-40.5Z" transform="translate(-76.606)" fill="#066665"/>
  <g id="Group_5908" data-name="Group 5908">
    <g id="Group_5907" data-name="Group 5907" clip-path="url(#clip-path)">
      <path id="Path_13488" data-name="Path 13488" d="M293.215,97.128c0,4.776-3.029,9.408-9.23,9.408H278.71v5.488h-5.88V87.791h11.19c6.2,0,9.195,4.633,9.195,9.337m-14.5-3.92v7.947h4.632a3.672,3.672,0,0,0,3.956-4.027c0-2.6-1.6-3.884-3.956-3.92Z" transform="translate(-187.149 -60.221)" fill="#066665"/>
      <path id="Path_13489" data-name="Path 13489" d="M351.9,108.246H340.213l-1.6,3.777h-6.2l10.37-24.234H349.3l10.406,24.234H353.47Zm-2.031-4.776-3.778-9.052-3.849,9.052Z" transform="translate(-228.017 -60.22)" fill="#066665"/>
      <path id="Path_13490" data-name="Path 13490" d="M452.279,96.878a8.706,8.706,0,0,1-4.312,7.84l4.989,7.306h-7.27L442.051,106h-4.276v6.023H431.93V87.791h11.725c4.918,0,8.624,3.813,8.624,9.087m-14.5-3.671v7.377H442.8a3.69,3.69,0,0,0,.036-7.377Z" transform="translate(-296.285 -60.221)" fill="#066665"/>
      <path id="Path_13491" data-name="Path 13491" d="M527.114,108.246H515.425l-1.6,3.777h-6.2L517.99,87.79h6.522l10.406,24.234h-6.237Zm-2.031-4.776L521.3,94.419l-3.849,9.052Z" transform="translate(-348.205 -60.22)" fill="#066665"/>
      <path id="Path_13492" data-name="Path 13492" d="M630.664,99.872c0,7.056-5.239,12.153-12.794,12.153H607.143v-24.2l10.727-.035c7.983-.036,12.794,5.1,12.794,12.081m-17.676,6.736h4.882c4.062,0,6.878-2.673,6.878-6.736,0-4.348-2.744-6.664-6.878-6.664h-4.882Z" transform="translate(-416.473 -60.22)" fill="#066665"/>
      <path id="Path_13493" data-name="Path 13493" d="M692.921,102.865v9.159h-5.88v-9.159L676.706,87.791h6.735l6.593,9.907,6.486-9.907h6.807Z" transform="translate(-464.19 -60.221)" fill="#066665"/>
      <path id="Path_13494" data-name="Path 13494" d="M804.617,112.024h-5.88V99.658l-5.809,12.366h-6.521L780.6,99.658v12.366h-5.845V87.791h6.486l8.446,17.783,8.41-17.783h6.522Z" transform="translate(-531.446 -60.221)" fill="#066665"/>
    </g>
  </g>
</svg>
