<svg id="team-name-cfe" xmlns="http://www.w3.org/2000/svg" xmlns:xlink="http://www.w3.org/1999/xlink" width="145" height="62.869" viewBox="0 0 145 62.869">
  <defs>
    <clipPath id="clip-path">
      <rect id="Rectangle_4456" data-name="Rectangle 4456" width="145" height="62.868" fill="none"/>
    </clipPath>
  </defs>
  <path id="Path_13495" data-name="Path 13495" d="M0,0V62.869H62.868V40.847H57.4V57.4H5.469V5.469H57.4V22.021h5.469V0Z" transform="translate(0 0)" fill="#dd193e"/>
  <path id="Path_13496" data-name="Path 13496" d="M127.882,94.949V89.48H89.48v38.4h5.469V111.415h21.327v-5.469H94.949v-11Z" transform="translate(-77.247 -77.247)" fill="#dd193e"/>
  <rect id="Rectangle_4453" data-name="Rectangle 4453" width="26.796" height="5.469" transform="translate(23.839 45.167)" fill="#dd193e"/>
  <g id="Group_5910" data-name="Group 5910">
    <g id="Group_5909" data-name="Group 5909" clip-path="url(#clip-path)">
      <path id="Path_13497" data-name="Path 13497" d="M556.313,105.28a4.268,4.268,0,0,0,3.722-2.072l-1.627-.936a2.314,2.314,0,0,1-2.1,1.206,2.345,2.345,0,0,1-2.365-2.376,2.4,2.4,0,0,1,4.483-1.124l1.627-.948a4.23,4.23,0,0,0-3.746-1.99,4.124,4.124,0,1,0,0,8.24" transform="translate(-476.538 -83.773)" fill="#231f20"/>
      <path id="Path_13498" data-name="Path 13498" d="M618.791,97.039a4.12,4.12,0,1,0,4.109,4.12,4.116,4.116,0,0,0-4.109-4.12m0,6.461a2.335,2.335,0,1,1,2.329-2.341,2.343,2.343,0,0,1-2.329,2.341" transform="translate(-530.646 -83.772)" fill="#231f20"/>
      <path id="Path_13499" data-name="Path 13499" d="M691.914,106.026h1.931v-7.96H691.7l-2.762,5.841-2.774-5.841h-2.13v7.96h1.92v-4.062l1.908,4.062h2.142l1.908-4.062Z" transform="translate(-590.518 -84.659)" fill="#231f20"/>
      <path id="Path_13500" data-name="Path 13500" d="M770.221,104.224h1.732a3.079,3.079,0,0,0,.012-6.157H768.29v7.96h1.931Zm0-4.378h1.522a1.19,1.19,0,0,1,1.3,1.288,1.206,1.206,0,0,1-1.3,1.323h-1.522Z" transform="translate(-663.253 -84.66)" fill="#231f20"/>
      <path id="Path_13501" data-name="Path 13501" d="M834.154,104.247h-4.179v-6.18h-1.92v7.96h6.1Z" transform="translate(-714.848 -84.66)" fill="#231f20"/>
      <path id="Path_13502" data-name="Path 13502" d="M888.78,104.247H884.6v-1.369h3.488v-1.662H884.6V99.846h4.179V98.067h-6.1v7.96h6.1Z" transform="translate(-762.006 -84.66)" fill="#231f20"/>
      <path id="Path_13503" data-name="Path 13503" d="M938.074,106.026h1.943v-6.18h2.821V98.067h-7.585v1.779h2.821Z" transform="translate(-807.39 -84.659)" fill="#231f20"/>
      <path id="Path_13504" data-name="Path 13504" d="M1006.425,104.247h-4.179v-1.369h3.488v-1.662h-3.488V99.846h4.179V98.067h-6.1v7.96h6.1Z" transform="translate(-863.567 -84.66)" fill="#231f20"/>
      <path id="Path_13505" data-name="Path 13505" d="M555.173,199.788a4.12,4.12,0,1,0,4.109,4.12,4.116,4.116,0,0,0-4.109-4.12m0,6.461a2.335,2.335,0,1,1,2.329-2.341,2.343,2.343,0,0,1-2.329,2.341" transform="translate(-475.725 -172.474)" fill="#231f20"/>
      <path id="Path_13506" data-name="Path 13506" d="M620.419,208.775h1.92v-2.587h3.488V204.42h-3.488v-1.826h4.179v-1.779h-6.1Z" transform="translate(-535.598 -173.361)" fill="#231f20"/>
      <path id="Path_13507" data-name="Path 13507" d="M677.906,206.188h3.488v-1.767h-3.488V202.6h4.179v-1.779h-6.1v7.959h1.92Z" transform="translate(-583.569 -173.361)" fill="#231f20"/>
      <rect id="Rectangle_4454" data-name="Rectangle 4454" width="1.92" height="7.96" transform="translate(100.015 27.454)" fill="#231f20"/>
      <path id="Path_13508" data-name="Path 13508" d="M760.094,208.029a4.268,4.268,0,0,0,3.722-2.072l-1.627-.936a2.314,2.314,0,0,1-2.1,1.206,2.345,2.345,0,0,1-2.365-2.376,2.4,2.4,0,0,1,4.483-1.124l1.627-.948a4.23,4.23,0,0,0-3.746-1.99,4.124,4.124,0,1,0,0,8.24" transform="translate(-652.459 -172.475)" fill="#231f20"/>
      <path id="Path_13509" data-name="Path 13509" d="M830.041,207h-4.179v-1.369h3.488v-1.662h-3.488v-1.369h4.179v-1.779h-6.1v7.96h6.1Z" transform="translate(-711.297 -173.361)" fill="#231f20"/>
      <path id="Path_13510" data-name="Path 13510" d="M554.831,311.523h1.92v-2.587h3.488v-1.768h-3.488v-1.826h4.179v-1.779h-6.1Z" transform="translate(-478.978 -262.061)" fill="#231f20"/>
      <path id="Path_13511" data-name="Path 13511" d="M613.224,307.438c0,1.533-.749,2.446-1.943,2.446-1.217,0-1.873-.913-1.873-2.446v-3.874h-1.92v3.874c0,2.634,1.533,4.226,3.792,4.226,2.224,0,3.886-1.592,3.886-4.226v-3.874h-1.943Z" transform="translate(-524.436 -262.062)" fill="#231f20"/>
      <path id="Path_13512" data-name="Path 13512" d="M680.445,306.548a2.829,2.829,0,0,0-2.832-2.985h-3.851v7.96h1.92v-1.978h1.4l1.194,1.978h2.388l-1.639-2.4a2.86,2.86,0,0,0,1.416-2.575m-3.113,1.217h-1.651v-2.423h1.662a1.212,1.212,0,0,1-.012,2.423" transform="translate(-581.648 -262.061)" fill="#231f20"/>
      <path id="Path_13513" data-name="Path 13513" d="M739.4,308.421l-4.026-4.858h-1.931v7.959h1.931v-4.869l4.026,4.869h1.931v-7.959H739.4Z" transform="translate(-633.167 -262.062)" fill="#231f20"/>
      <rect id="Rectangle_4455" data-name="Rectangle 4455" width="1.92" height="7.96" transform="translate(109.836 41.502)" fill="#231f20"/>
      <path id="Path_13514" data-name="Path 13514" d="M827.025,305.343h2.821v6.18h1.943v-6.18h2.821v-1.779h-7.585Z" transform="translate(-713.958 -262.062)" fill="#231f20"/>
      <path id="Path_13515" data-name="Path 13515" d="M894.921,307.438c0,1.533-.749,2.446-1.943,2.446-1.217,0-1.873-.913-1.873-2.446v-3.874h-1.92v3.874c0,2.634,1.533,4.226,3.792,4.226,2.224,0,3.886-1.592,3.886-4.226v-3.874h-1.943Z" transform="translate(-767.621 -262.062)" fill="#231f20"/>
      <path id="Path_13516" data-name="Path 13516" d="M962.143,306.548a2.83,2.83,0,0,0-2.833-2.985h-3.851v7.96h1.92v-1.978h1.4l1.194,1.978h2.388l-1.639-2.4a2.86,2.86,0,0,0,1.416-2.575m-3.114,1.217h-1.65v-2.423h1.662a1.212,1.212,0,0,1-.012,2.423" transform="translate(-824.833 -262.061)" fill="#231f20"/>
      <path id="Path_13517" data-name="Path 13517" d="M1022.091,305.343v-1.779h-6.1v7.96h6.1v-1.779h-4.179v-1.369h3.488v-1.662h-3.488v-1.369Z" transform="translate(-877.091 -262.062)" fill="#231f20"/>
    </g>
  </g>
</svg>
