<svg xmlns="http://www.w3.org/2000/svg" width="52.375" height="60.637" viewBox="0 0 52.375 60.637">
  <g id="play-icon" transform="translate(-34.883 0)">
    <g id="Group_5820" data-name="Group 5820" transform="translate(34.883 0)">
      <path id="Path_13427" data-name="Path 13427" d="M83.319,23.321,47.505,1.245A8.281,8.281,0,0,0,34.883,8.3V52.248a8.368,8.368,0,0,0,8.263,8.388h.037a8.31,8.31,0,0,0,4.293-1.292,2.364,2.364,0,0,0-2.463-4.037,3.628,3.628,0,0,1-1.842.6,3.674,3.674,0,0,1-3.56-3.659V8.3a3.552,3.552,0,0,1,5.413-3.026L80.839,27.348a3.552,3.552,0,0,1-.016,6.059L54.929,49.261A2.364,2.364,0,1,0,57.4,53.294L83.289,37.442a8.281,8.281,0,0,0,.03-14.12Z" transform="translate(-34.883 0)" fill="#fff"/>
    </g>
  </g>
</svg>
