<svg xmlns="http://www.w3.org/2000/svg" width="49.924" height="50.164" viewBox="0 0 49.924 50.164">
  <path id="whatsapp-icon" d="M42.9,7.29A24.863,24.863,0,0,0,3.776,37.283L.25,50.164l13.178-3.457a24.831,24.831,0,0,0,11.879,3.026h.01A24.868,24.868,0,0,0,42.9,7.29ZM25.316,45.535h-.009a20.635,20.635,0,0,1-10.516-2.88l-.754-.448-7.82,2.051,2.087-7.624-.491-.782a20.661,20.661,0,1,1,17.5,9.682ZM36.649,30.061c-.621-.311-3.675-1.813-4.244-2.021s-.983-.31-1.4.311-1.6,2.021-1.967,2.435-.724.467-1.346.156A16.965,16.965,0,0,1,22.7,27.859a18.735,18.735,0,0,1-3.455-4.3c-.362-.622,0-.926.272-1.268a17.569,17.569,0,0,0,1.553-2.125,1.142,1.142,0,0,0-.052-1.088c-.155-.311-1.4-3.368-1.915-4.612-.5-1.211-1.016-1.047-1.4-1.066-.362-.018-.776-.022-1.19-.022a2.281,2.281,0,0,0-1.656.777,6.966,6.966,0,0,0-2.174,5.181c0,3.057,2.226,6.011,2.536,6.425s4.38,6.688,10.61,9.378a35.551,35.551,0,0,0,3.541,1.309,8.515,8.515,0,0,0,3.912.246c1.193-.179,3.674-1.5,4.192-2.953a5.19,5.19,0,0,0,.362-2.954c-.155-.259-.569-.414-1.19-.725Zm0,0" transform="translate(-0.25)" fill="#fff" fill-rule="evenodd"/>
</svg>
