<svg id="whatsapp-icon" xmlns="http://www.w3.org/2000/svg" width="70.459" height="70.458" viewBox="0 0 70.459 70.458">
  <circle id="Ellipse_410" data-name="Ellipse 410" cx="35.229" cy="35.229" r="35.229" transform="translate(0)" fill="#ec7223"/>
  <path id="whatsapp" d="M35.392,38.049A20.634,20.634,0,0,0,2.927,62.941L0,73.627l10.936-2.871a20.565,20.565,0,0,0,9.859,2.509H20.8A20.5,20.5,0,0,0,35.392,38.049ZM20.8,69.789A17.115,17.115,0,0,1,12.07,67.4l-.623-.372-6.486,1.7L6.69,62.4l-.409-.65a17.178,17.178,0,1,1,31.861-9.115A17.336,17.336,0,0,1,20.8,69.789Zm9.4-12.841c-.511-.26-3.048-1.505-3.522-1.673s-.818-.26-1.161.26-1.329,1.673-1.635,2.026-.6.39-1.115.13c-3.029-1.515-5.018-2.7-7.015-6.133-.53-.911.53-.846,1.515-2.815a.955.955,0,0,0-.046-.9c-.13-.26-1.161-2.8-1.589-3.828-.418-1-.846-.864-1.161-.883-.3-.019-.641-.019-.985-.019a1.909,1.909,0,0,0-1.375.641,5.792,5.792,0,0,0-1.8,4.3,10.1,10.1,0,0,0,2.1,5.333c.26.344,3.633,5.547,8.809,7.786,3.271,1.412,4.553,1.533,6.188,1.292.994-.149,3.048-1.245,3.475-2.453a4.311,4.311,0,0,0,.3-2.453C31.062,57.329,30.718,57.2,30.207,56.948Z" transform="translate(14.543 -17.355)" fill="#fff"/>
</svg>
