<svg xmlns="http://www.w3.org/2000/svg" width="55.926" height="55.933" viewBox="0 0 55.926 55.933">
  <path id="winnng-usp-img1" d="M15.4,13.114A6.554,6.554,0,1,0,8.847,6.56,6.561,6.561,0,0,0,15.4,13.114Zm0-8.738A2.184,2.184,0,1,1,13.216,6.56,2.187,2.187,0,0,1,15.4,4.376ZM55.925,41.186a2.185,2.185,0,0,1-2.184,2.184H48.279v4.26a2.185,2.185,0,0,1-2.184,2.184H39.213v3.932a2.185,2.185,0,0,1-2.184,2.184H2.293a2.177,2.177,0,0,1-1.6-.7A2.183,2.183,0,0,1,.5,52.246l7.363-8.9V21.64l-3.5,5.243v7.968a2.185,2.185,0,1,1-4.369,0V26.222A2.184,2.184,0,0,1,.366,25.01l4.6-6.9a6.54,6.54,0,0,1,4.592-2.861,2.2,2.2,0,0,1,.489-.057c.038,0,.075,0,.113.006.086,0,.173-.006.259-.006h7.493c1.605,0,3.893,1.423,5.208,3.241l3.663,5.061H32.44a2.185,2.185,0,0,1,0,4.369H25.668a2.185,2.185,0,0,1-1.77-.9l-4.317-5.965a4.423,4.423,0,0,0-1.811-1.433H12.233V44.136a2.184,2.184,0,0,1-.5,1.393L6.737,51.563H23.593v-8.08l-6.689-5.9a2.185,2.185,0,0,1-.739-1.638V28.516a2.185,2.185,0,1,1,4.369,0v6.442l6.688,5.9a2.185,2.185,0,0,1,.739,1.638v9.066h6.882V47.631a2.185,2.185,0,0,1,2.185-2.184H43.91v-4.26A2.184,2.184,0,0,1,46.094,39h7.646a2.184,2.184,0,0,1,2.184,2.184ZM49.371,0h-11.8a2.185,2.185,0,0,0-1.66,3.6l3.557,4.158-3.517,3.887a2.185,2.185,0,0,0,1.62,3.65H51.556V31.356a2.185,2.185,0,0,0,4.369,0V6.553A6.561,6.561,0,0,0,49.371,0Zm2.184,10.93H42.5L44,9.268a2.185,2.185,0,0,0,.04-2.886L42.318,4.369h7.053a2.187,2.187,0,0,1,2.184,2.184Zm0,0" transform="translate(0.001 0.001)" fill="#fff"/>
</svg>
