<svg xmlns="http://www.w3.org/2000/svg" width="57.341" height="55.389" viewBox="0 0 57.341 55.389">
  <g id="winnng-usp-img4" transform="translate(-0.007 -8.7)">
    <g id="Group_5869" data-name="Group 5869" transform="translate(0.007 10.12)">
      <g id="Group_5867" data-name="Group 5867" transform="translate(0 0)">
        <g id="Group_5865" data-name="Group 5865">
          <g id="Group_5864" data-name="Group 5864">
            <g id="Group_5861" data-name="Group 5861" transform="translate(8.621 15.702)">
              <path id="Path_13451" data-name="Path 13451" d="M82.914,180.628a2.244,2.244,0,0,1-2.173-1.691l-3.684-14.558a2.241,2.241,0,1,1,4.345-1.1l3.684,14.558a2.243,2.243,0,0,1-1.624,2.721A2.3,2.3,0,0,1,82.914,180.628Z" transform="translate(-76.989 -161.589)" fill="#fff"/>
            </g>
            <g id="Group_5863" data-name="Group 5863">
              <g id="Group_5862" data-name="Group 5862">
                <path id="Path_13452" data-name="Path 13452" d="M5.9,75.346a2.185,2.185,0,0,1-.952-.213,2.249,2.249,0,0,1-1.221-1.478L.454,60.72a2.235,2.235,0,0,1,1.2-2.565l2.038-1L.208,43.373A6.517,6.517,0,0,1,.051,41L1.72,27.113a6.535,6.535,0,1,1,12.957,1.713l-1.187,8.1a10.488,10.488,0,0,1,9.6,7.906l2.262,8.937a14.125,14.125,0,0,1-7.671,16.193L6.86,75.122A2.1,2.1,0,0,1,5.9,75.346Zm-.65-13.954L7.4,69.914l8.354-3.987h.011A9.639,9.639,0,0,0,21,54.886l-2.262-8.937a6,6,0,0,0-7.29-4.345A2.243,2.243,0,0,1,8.73,39.98l-.022-.1a2.289,2.289,0,0,1-.045-.873L10.253,28.2a2.036,2.036,0,0,0-.426-1.568,2.007,2.007,0,0,0-1.456-.75,2.061,2.061,0,0,0-2.184,1.8L4.519,41.57a2.06,2.06,0,0,0,.045.739L8.495,57.864a2.235,2.235,0,0,1-1.2,2.565Z" transform="translate(-0.007 -21.376)" fill="#fff"/>
              </g>
            </g>
          </g>
        </g>
        <g id="Group_5866" data-name="Group 5866" transform="translate(40.548 15.702)">
          <path id="Path_13453" data-name="Path 13453" d="M364.33,180.628a2.3,2.3,0,0,1-.549-.067,2.243,2.243,0,0,1-1.624-2.721l3.684-14.558a2.241,2.241,0,1,1,4.345,1.1L366.5,178.937A2.247,2.247,0,0,1,364.33,180.628Z" transform="translate(-362.089 -161.589)" fill="#fff"/>
        </g>
      </g>
      <g id="Group_5868" data-name="Group 5868" transform="translate(31.571 0)">
        <path id="Path_13454" data-name="Path 13454" d="M301.8,75.346a2.246,2.246,0,0,1-.963-.224L290.02,69.959a14.144,14.144,0,0,1-7.671-16.193l2.262-8.937a10.511,10.511,0,0,1,9.6-7.906l-1.187-8.1A6.505,6.505,0,0,1,294.4,23.8a6.545,6.545,0,0,1,11.579,3.326l1.669,13.886a6.3,6.3,0,0,1-.157,2.374L306.348,47.9A2.241,2.241,0,0,1,302,46.8l1.142-4.513a2.06,2.06,0,0,0,.045-.739l-1.669-13.886a2.069,2.069,0,0,0-2.184-1.8,2.023,2.023,0,0,0-1.881,2.318l1.59,10.807a2.3,2.3,0,0,1-.045.874l-.022.1a2.23,2.23,0,0,1-2.721,1.624,6.026,6.026,0,0,0-7.3,4.356l-2.262,8.937a9.639,9.639,0,0,0,5.241,11.042l8.365,4,2.15-8.522-2.038-1a2.239,2.239,0,0,1,1.949-4.032l3.684,1.792a2.248,2.248,0,0,1,1.2,2.565l-3.27,12.935a2.249,2.249,0,0,1-1.221,1.478A2.185,2.185,0,0,1,301.8,75.346Z" transform="translate(-281.926 -21.376)" fill="#fff"/>
      </g>
    </g>
    <g id="Group_5871" data-name="Group 5871" transform="translate(18.162 8.7)">
      <g id="Group_5870" data-name="Group 5870" transform="translate(0 0)">
        <path id="Path_13455" data-name="Path 13455" d="M172.644,27.335a2.28,2.28,0,0,1-1.221-.358c-1.557-1.008-6.719-4.479-8.052-6.73a8.328,8.328,0,0,1-1.243-4.771,6.808,6.808,0,0,1,6.5-6.775,7.408,7.408,0,0,1,4.02,1.243A7.543,7.543,0,0,1,176.631,8.7a6.808,6.808,0,0,1,6.5,6.775,8.411,8.411,0,0,1-1.232,4.759c-1.344,2.273-6.5,5.734-8.041,6.73A2.163,2.163,0,0,1,172.644,27.335Zm-4.009-14.155c-1.03,0-1.96,1.153-2.027,2.509a3.84,3.84,0,0,0,.627,2.273c.459.784,2.968,2.755,5.42,4.435,2.441-1.68,4.939-3.651,5.4-4.435a3.861,3.861,0,0,0,.627-2.273,2.44,2.44,0,0,0-2.027-2.509,3.98,3.98,0,0,0-2.374,1.165,2.181,2.181,0,0,1-3.292-.045A3.8,3.8,0,0,0,168.635,13.179Z" transform="translate(-162.119 -8.7)" fill="#fff"/>
      </g>
    </g>
  </g>
</svg>
