<svg xmlns="http://www.w3.org/2000/svg" width="72.448" height="70.018" viewBox="0 0 72.448 70.018">
  <path id="winnng-usp-img3" d="M69.406,41.057l-3.1-.209a2.83,2.83,0,0,1,.42-5.644l3.1.209a2.83,2.83,0,0,1-.42,5.644ZM67.049,53.508a2.829,2.829,0,0,0-.647-3.949l-2.3-1.652a2.83,2.83,0,0,0-3.3,4.6l2.3,1.652A2.83,2.83,0,0,0,67.049,53.508ZM51.741,8.068l1.083-2.615a2.83,2.83,0,0,0-5.229-2.166L46.512,5.9a2.83,2.83,0,0,0,5.229,2.166Zm9.386,8.927,2.288-1.666a2.83,2.83,0,0,0-3.331-4.575L57.8,12.419a2.83,2.83,0,1,0,3.331,4.575Zm-16.8,52.929a2.83,2.83,0,0,0,2.015-3.458l-.722-2.737a2.83,2.83,0,0,0-3.458-2.015h0a2.83,2.83,0,0,0-2.015,3.458l.722,2.737A2.83,2.83,0,0,0,44.328,69.923ZM3.039,41.057l3.095-.209a2.83,2.83,0,0,0-.42-5.644l-3.1.209a2.83,2.83,0,0,0,.42,5.644Zm6.3,13.1,2.3-1.652a2.83,2.83,0,0,0-3.3-4.6l-2.3,1.652a2.83,2.83,0,1,0,3.3,4.6ZM24.393,9.6a2.831,2.831,0,0,0,1.532-3.7L24.842,3.288a2.83,2.83,0,1,0-5.229,2.165L20.7,8.068A2.829,2.829,0,0,0,24.393,9.6Zm-9.129,6.773a2.83,2.83,0,0,0-.622-3.954l-2.288-1.666a2.83,2.83,0,0,0-3.331,4.575l2.288,1.666a2.831,2.831,0,0,0,3.954-.622Zm16.3,51.536.722-2.737a2.83,2.83,0,0,0-5.473-1.443l-.722,2.737a2.83,2.83,0,0,0,5.473,1.443Zm-2.8-13.728,7.3-5.3a.268.268,0,0,1,.316,0l7.3,5.3A5.927,5.927,0,0,0,52.8,47.554l-1.484-4.565a2.83,2.83,0,0,0-5.382,1.75L47.414,49.3a.218.218,0,0,1-.1.3.223.223,0,0,1-.316,0l-7.3-5.3a5.914,5.914,0,0,0-6.967,0l-7.3,5.3a.224.224,0,0,1-.316,0,.219.219,0,0,1-.1-.3l2.787-8.572a5.91,5.91,0,0,0-2.154-6.626l-7.3-5.3a.234.234,0,0,1-.1-.316c.063-.193.164-.193.253-.193h9.019a5.9,5.9,0,0,0,5.639-4.07l2.785-8.623a.222.222,0,0,1,.254-.184c.195,0,.227.1.253.179l2.789,8.632A5.9,5.9,0,0,0,44.9,28.3h9.018c.089,0,.19,0,.253.193a.234.234,0,0,1-.095.316L50.69,31.268a2.83,2.83,0,0,0,3.326,4.58l3.387-2.46A5.944,5.944,0,0,0,53.919,22.64H44.9a.252.252,0,0,1-.253-.15l-2.789-8.632a5.928,5.928,0,0,0-11.276,0L27.8,22.485a.252.252,0,0,1-.254.155H18.525a5.944,5.944,0,0,0-3.483,10.749l7.3,5.3a.266.266,0,0,1,.1.3l-2.787,8.572A5.837,5.837,0,0,0,21.8,54.179a5.841,5.841,0,0,0,6.969,0ZM36.364,0a2.83,2.83,0,1,0,2.83,2.83A2.83,2.83,0,0,0,36.364,0ZM16.837,57.165A2.83,2.83,0,1,0,19.667,60,2.83,2.83,0,0,0,16.837,57.165Zm38.346,0A2.83,2.83,0,1,0,58.013,60,2.83,2.83,0,0,0,55.183,57.165ZM5.517,22.215a2.83,2.83,0,1,0,2.83,2.83A2.83,2.83,0,0,0,5.517,22.215Zm61.41.283a2.83,2.83,0,1,0,2.83,2.83A2.83,2.83,0,0,0,66.927,22.5Zm0,0" transform="translate(0.002)" fill="#fff"/>
</svg>
