<svg xmlns="http://www.w3.org/2000/svg" width="55.924" height="55.933" viewBox="0 0 55.924 55.933">
  <g id="winnng-usp-img2" transform="translate(0.06 0.118)">
    <g id="g2866" transform="translate(34.125 33.416)">
      <g id="path2868" transform="translate(0 0)">
        <path id="Path_13456" data-name="Path 13456" d="M90.853,277.405a6.553,6.553,0,1,1,6.553-6.553A6.561,6.561,0,0,1,90.853,277.405Zm0-8.731a2.187,2.187,0,1,0,2.187,2.187A2.192,2.192,0,0,0,90.853,268.674Z" transform="translate(-84.3 -264.3)" fill="#fff"/>
      </g>
    </g>
    <g id="g2870" transform="translate(-0.055 42.705)">
      <g id="path2872">
        <path id="Path_13457" data-name="Path 13457" d="M-53.447,515.805A6.561,6.561,0,0,1-60,509.253a6.561,6.561,0,0,1,6.553-6.553,6.561,6.561,0,0,1,6.553,6.553,2.186,2.186,0,0,1-2.187,2.187,2.181,2.181,0,0,1-2.187-2.187,2.192,2.192,0,0,0-2.187-2.187,2.192,2.192,0,0,0-2.187,2.187,2.192,2.192,0,0,0,2.187,2.187,2.186,2.186,0,0,1,2.187,2.187A2.172,2.172,0,0,1-53.447,515.805Z" transform="translate(60 -502.7)" fill="#fff"/>
      </g>
    </g>
    <g id="g2874" transform="translate(42.758 -0.108)">
      <g id="path2876" transform="translate(0)">
        <path id="Path_13458" data-name="Path 13458" d="M77.253-398.895a6.561,6.561,0,0,1-6.553-6.553A6.561,6.561,0,0,1,77.253-412a6.561,6.561,0,0,1,6.553,6.553,2.186,2.186,0,0,1-2.187,2.187,2.181,2.181,0,0,1-2.187-2.187,2.192,2.192,0,0,0-2.187-2.187,2.185,2.185,0,0,0-2.179,2.187,2.192,2.192,0,0,0,2.187,2.187,2.186,2.186,0,0,1,2.187,2.187A2.179,2.179,0,0,1,77.253-398.895Z" transform="translate(-70.7 412)" fill="#fff"/>
      </g>
    </g>
    <g id="g2878" transform="translate(31.07 42.156)">
      <g id="path2880" transform="translate(0)">
        <path id="Path_13459" data-name="Path 13459" d="M94.224,488.608H89.858a5.242,5.242,0,1,0-10.484,0H75a9.612,9.612,0,0,1,19.224,0Z" transform="translate(-75 -479)" fill="#fff"/>
      </g>
    </g>
    <g id="g2882" transform="translate(25.492 25.444)">
      <g id="path2884" transform="translate(0)">
        <path id="Path_13460" data-name="Path 13460" d="M-114.482,300.562a15.776,15.776,0,0,1-2.826-.262,15.1,15.1,0,0,1-9.739-6.34,15.067,15.067,0,0,1-2.4-11.369,15.1,15.1,0,0,1,6.34-9.739,15.067,15.067,0,0,1,11.369-2.4,15.1,15.1,0,0,1,9.739,6.34,15.067,15.067,0,0,1,2.4,11.369,2.18,2.18,0,0,1-2.547,1.745,2.18,2.18,0,0,1-1.745-2.547,10.724,10.724,0,0,0-1.712-8.092,10.734,10.734,0,0,0-6.937-4.513,10.724,10.724,0,0,0-8.092,1.712,10.734,10.734,0,0,0-4.513,6.938,10.724,10.724,0,0,0,1.712,8.092,10.733,10.733,0,0,0,6.937,4.513,10.732,10.732,0,0,0,8.215-1.794,2.19,2.19,0,0,1,3.047.524,2.19,2.19,0,0,1-.524,3.047A15.178,15.178,0,0,1-114.482,300.562Z" transform="translate(129.71 -270.19)" fill="#fff"/>
      </g>
    </g>
    <g id="g2886" transform="translate(8.568 7.863)">
      <g id="path2888" transform="translate(0 0)">
        <path id="Path_13461" data-name="Path 13461" d="M12.853-268.595A6.561,6.561,0,0,1,6.3-275.147a6.561,6.561,0,0,1,6.553-6.553,6.561,6.561,0,0,1,6.553,6.553A6.561,6.561,0,0,1,12.853-268.595Zm0-8.739a2.192,2.192,0,0,0-2.187,2.187,2.192,2.192,0,0,0,2.187,2.187,2.192,2.192,0,0,0,2.187-2.187A2.192,2.192,0,0,0,12.853-277.334Z" transform="translate(-6.3 281.7)" fill="#fff"/>
      </g>
    </g>
    <g id="g2890" transform="translate(5.513 16.603)">
      <g id="path2892" transform="translate(0 0)">
        <path id="Path_13462" data-name="Path 13462" d="M16.223-57.392H11.858a5.247,5.247,0,0,0-5.242-5.242,5.247,5.247,0,0,0-5.242,5.242H-3A9.616,9.616,0,0,1,6.608-67,9.623,9.623,0,0,1,16.223-57.392Z" transform="translate(3 67)" fill="#fff"/>
      </g>
    </g>
    <g id="g2894" transform="translate(-0.06 -0.118)">
      <g id="path2896" transform="translate(0 0)">
        <path id="Path_13463" data-name="Path 13463" d="M-192.427-245.538a15.776,15.776,0,0,1-2.826-.262,15.2,15.2,0,0,1-12.139-17.708,15.1,15.1,0,0,1,6.34-9.739,15.067,15.067,0,0,1,11.369-2.4,15.2,15.2,0,0,1,12.139,17.708,2.18,2.18,0,0,1-2.547,1.745,2.18,2.18,0,0,1-1.745-2.547,10.829,10.829,0,0,0-8.649-12.614,10.724,10.724,0,0,0-8.092,1.712,10.734,10.734,0,0,0-4.513,6.937,10.829,10.829,0,0,0,8.649,12.614,10.732,10.732,0,0,0,8.215-1.794,2.19,2.19,0,0,1,3.047.524,2.19,2.19,0,0,1-.524,3.047A15.137,15.137,0,0,1-192.427-245.538Z" transform="translate(207.65 275.91)" fill="#fff"/>
      </g>
    </g>
    <g id="g2898" transform="translate(5.429 27.298)">
      <g id="path2900" transform="translate(0 0)">
        <rect id="Rectangle_4400" data-name="Rectangle 4400" width="17.372" height="4.366" transform="matrix(0.251, -0.968, 0.968, 0.251, 0, 16.818)" fill="#fff"/>
      </g>
    </g>
    <g id="g2902" transform="translate(21.101 23.71)">
      <g id="path2904" transform="translate(0 0)">
        <rect id="Rectangle_4401" data-name="Rectangle 4401" width="4.366" height="10.828" transform="translate(0 3.258) rotate(-48.271)" fill="#fff"/>
      </g>
    </g>
    <g id="g2906" transform="translate(41.794 9.824)">
      <g id="path2908" transform="translate(0)">
        <rect id="Rectangle_4402" data-name="Rectangle 4402" width="18.331" height="4.366" transform="translate(0 17.473) rotate(-72.409)" fill="#fff"/>
      </g>
    </g>
  </g>
</svg>
