<svg xmlns="http://www.w3.org/2000/svg" width="24.777" height="27.646" viewBox="0 0 24.777 27.646">
  <g id="writing-icon" transform="translate(-26.57)">
    <g id="Group_135" data-name="Group 135" transform="translate(26.57)">
      <g id="Group_134" data-name="Group 134">
        <path id="Path_116" data-name="Path 116" d="M119.742,201.08a1.08,1.08,0,0,0-1.08-1.08H107.539a1.08,1.08,0,0,0,0,2.16h11.123A1.08,1.08,0,0,0,119.742,201.08Z" transform="translate(-102.145 -189.201)" fill="#EC7223"/>
        <path id="Path_117" data-name="Path 117" d="M107.539,280a1.08,1.08,0,1,0,0,2.16h6.756a1.08,1.08,0,0,0,0-2.16Z" transform="translate(-102.145 -264.881)" fill="#EC7223"/>
        <path id="Path_118" data-name="Path 118" d="M34.5,25.486H30.89a2.162,2.162,0,0,1-2.16-2.16V4.32a2.162,2.162,0,0,1,2.16-2.16H44.167a2.162,2.162,0,0,1,2.16,2.16v6.642a1.08,1.08,0,1,0,2.16,0V4.32A4.325,4.325,0,0,0,44.167,0H30.89a4.325,4.325,0,0,0-4.32,4.32V23.326a4.325,4.325,0,0,0,4.32,4.32H34.5a1.08,1.08,0,0,0,0-2.16Z" transform="translate(-26.57)" fill="#EC7223"/>
        <path id="Path_119" data-name="Path 119" d="M255.575,272.972a3.243,3.243,0,0,0-4.581,0l-5.929,5.916a1.08,1.08,0,0,0-.271.451l-1.291,4.251a1.08,1.08,0,0,0,1.322,1.355l4.359-1.207a1.08,1.08,0,0,0,.475-.276l5.917-5.905A3.243,3.243,0,0,0,255.575,272.972Zm-7.241,8.758-2.193.607.642-2.113,4-3.992,1.528,1.528Zm5.715-5.7-.209.209-1.527-1.527.209-.208a1.08,1.08,0,0,1,1.528,1.527Z" transform="translate(-231.746 -257.336)" fill="#EC7223"/>
        <path id="Path_120" data-name="Path 120" d="M118.662,120H107.539a1.08,1.08,0,0,0,0,2.16h11.123a1.08,1.08,0,0,0,0-2.16Z" transform="translate(-102.145 -113.52)" fill="#EC7223"/>
      </g>
    </g>
  </g>
</svg>
