<svg xmlns="http://www.w3.org/2000/svg" width="35" height="35" viewBox="0 0 35 35">
  <g id="youtube-icon1" transform="translate(0.13)">
    <circle id="Ellipse_412" data-name="Ellipse 412" cx="17.5" cy="17.5" r="17.5" transform="translate(-0.13)" fill="#ec7223"/>
    <path id="Icon_awesome-youtube" data-name="Icon awesome-youtube" d="M21.527,6.8A2.628,2.628,0,0,0,19.678,4.94c-1.631-.44-8.171-.44-8.171-.44s-6.54,0-8.171.44A2.628,2.628,0,0,0,1.487,6.8a27.567,27.567,0,0,0-.437,5.067,27.567,27.567,0,0,0,.437,5.067,2.589,2.589,0,0,0,1.849,1.831c1.631.44,8.171.44,8.171.44s6.54,0,8.171-.44a2.589,2.589,0,0,0,1.849-1.831,27.567,27.567,0,0,0,.437-5.067A27.567,27.567,0,0,0,21.527,6.8ZM9.368,14.977V8.758l5.466,3.11-5.466,3.11Z" transform="translate(5.993 5.479)" fill="#fff"/>
  </g>
</svg>
